<?xml version="1.0" encoding="UTF-8"?>
<svg viewBox="0 0 759.72052 245.09587" xmlns="http://www.w3.org/2000/svg">
 <defs>
  <linearGradient id="a" x1="358.82" x2="348.92" y1="357.37" y2="597.79" gradientUnits="userSpaceOnUse">
   <stop stop-color="#4e9a06" offset="0"/>
   <stop stop-color="#295103" offset="1"/>
  </linearGradient>
  <linearGradient id="b" x1="386" x2="383.17" y1="519.88" y2="446.34" gradientUnits="userSpaceOnUse">
   <stop stop-color="#fff" stop-opacity=".22857" offset="0"/>
   <stop stop-color="#fff" stop-opacity="0" offset="1"/>
  </linearGradient>
 </defs>
 <g transform="translate(-20.356 -298.36)">
  <path d="m26.564 501.25 86.668-6.364 67.882 6.364 38.891-0.05749 8.4832 20.49-3.6436-32.54 58.8 6.4506 71.404-6.2159c15.964 2.148 44.086 7.6936 62.24 7.6513l99.689 1.3968c17.396 32.702 6.9017 5.867 58.485-4.1655 28.886-5.6182 118.98 6.6521 143.1 6.9901v40h-692v-40z" fill="#484b2a"/>
  <path d="m409.20001,352.41601-.53125,6.4375-6.46875,25.5625-.6875,9.5312c-.12413.3271-4.01331,10.6269-4.9375,13.0626-5.97582.0536-11.60296,1.6024-16.875,4.2812-18.92744-.6146-34.37142,13.5036-46.5,32.4688l1.21875-22.4688 .375-1.9062-.3125.75 .21875-4-1.28125,6.5624-7.4375,17.7813c-3.99775-.1798-8.30049-1.5873-12.625-2.9687l2.4375-13 .5625-1.7188-.375.6562 .71875-3.875-2.09375,6.25-5.9375,10.2813c-3.08718-.8659-6.1306-1.5058-9.03125-1.4375 11.57648-20.6396 28.59996-34.4326 53.625-28.5625-2.62393-.9746-5.16146-1.6926-7.625-2.2187-26.87422-7.8114-44.78419,9.4278-56.65625,33.875l1.21875-16.25 .375-1.7188-.28125.6562 .28125-3.9062-1.40625,6.4375-8.78125,19.9687c-.24425.2118-.50886.4215-.75.6563-5.60817,5.4615-11.01294,11.6083-16.15625,18.0625-1.05043-.2276-2.07837-.407-3.09375-.5625-.5923-.1248-1.20019-.2422-1.78125-.3437 4.443-9.3812 9.2512-18.7028 14.4375-27.3126 6.0256-7.4182 12.2824-14.0482 18.625-19.3124 4.77496-3.7974 9.61567-6.9242 14.4375-9.1563l-.625.0937c.48993-.2321.97874-.4757 1.46875-.6874-1.36408.3064-2.72864.7111-4.09375,1.1874-4.84114,1.0942-9.64267,3.1493-14.375,5.9688 1.80097-2.1237 3.64724-4.1074 5.5-5.9688 4.07209-3.9345 8.24026-7.2476 12.5-9.8124-.24096.0597-.47849.1539-.71875.2187 .49277-.3043.97337-.625 1.46875-.9063-1.35886.4646-2.69072,1.0448-4.03125,1.6876-9.43069,3.2704-18.29376,10.3385-26.46875,19.6874-3.24638,1.3456-6.48521,3.0368-9.71875,5.0313l.34375-1.9063-.71875,2.125c-3.3172,2.0702-6.60371,4.4574-9.875,7.0938l.71875-3.625 .625-1.8438-.40625.6876 .78125-3.9063-2.21875,6.3125-3.3125,5.5625c-6.19447-.6531-12.97821-2.8738-19.09375-2.9687l.84375-4.5 .5625-1.7188-.375.6562 .71875-3.875-2.09375,6.25-1.90625,3.2813c-3.72177.3075-7.09766,1.6168-9.84375,4.875 6.57499-10.9797 13.71473-20.8361 21.25-28.4063 1.14374-1.1051 2.27771-2.1497 3.4375-3.1562 1.36722.1526 2.765.3521 4.1875.625-1.23623-.4026-2.4589-.7569-3.65625-1.0625 2.80252-2.3904 5.64588-4.4814 8.53125-6.2187-.24096.0597-.47849.1539-.71875.2187 .49277-.3043.97337-.625 1.46875-.9063-1.35886.4646-2.69072,1.0448-4.03125,1.6876-3.10609,1.0771-6.14595,2.5552-9.125,4.4062-.09469-.0166-.18681-.0465-.28125-.0625-9.72289-2.3819-18.1696-1.5976-25.5,1.5313-26.68018-4.6932-43.90043,16.377-54.9375,43.1562l.40625-5.25 .65625-3.2812c6.49784-11.0839 13.56021-21.166 21.03125-29 4.5082-4.5319 9.13098-8.3623 13.875-11.2188l-.6875.1875c.48153-.2968.98473-.569 1.46875-.8437-1.35886.4645-2.72197,1.0135-4.0625,1.6562-6.96575,2.4156-13.60758,6.9188-19.90625,12.875-15.42314,2.8449-31.18429,14.891-45.71875,30.375l2.375-11.6875c.59431-.6262 1.19408-1.2445 1.8125-1.8437 1.69157-.413 3.41602-.7559 5.1875-1-1.49766.0292-2.96608.1472-4.40625.2812 5.50997-5.1534 11.94216-9.235 19.5-11.75-3.45115.7131-6.67931,1.6986-9.71875,2.9062-2.20643-1.1603-4.37047-2.1237-6.5-2.9062-3.42944-1.5505-6.76171-2.6318-10-3.2812 9.92912-8.2605 22.28037-12.1067 37.65625-8.5-2.6187-.9727-5.13481-1.6928-7.59375-2.2188-16.63292-4.8379-29.85485-.0648-40.3125,10.0625-5.03471.3841-9.79328,1.8462-14.3125,4.125-3.59108.7894-6.95386,1.8592-10.09375,3.1875-7.75326,2.5849-14.26342,6.5905-19.75,11.5938 .2487-1.6722.35965-2.4882.59375-4.0626l.8125-4.2812 .5625-1.7188-.375.6563 .71875-3.875-.59375,1.8125c1.62193-10.911 4.8125-32.4375 4.8125-32.4375l.78125-27.375 .28125-1.8437-.25.6874 .125-3.9374-.96875,6.4687-8.53125,24.8437c0,0-4.16607,29.5893-7.78125,55.3126l-3.34375,5.7812-.625,1.9375c-2.95458,5.4582-5.31556,11.3043-7.21875,17.2813-25.07406,19.9352-28.75,69.9374-28.75,69.9374l2.8125.3438c-.00184.0238-.03125.1875-.03125.1875l4.1875.5c0,0 1.67888-37.2633 18.8125-60.0937-.73796,3.2512-1.35467,6.5113-1.875,9.7187-7.2361,22.7398-14.56449,45.912-14.78125,47l4.34375,1.9063 .03125-.0626 4.1875,1.5313c.00295-.0067.02764-.1162.03125-.125l2.40625.7813-.0625.2812 5.21875,1.6562c0,0 .22192-1.2055.5625-2.9062l.75.0938c-.02047.1753-.15444,1.1745-.15625,1.2187l2.875.875v.0937l.65625.0938 .5.1562v-.0624l2.9375.4374c.19543-.8235 4.37423-28.5006 8.9375-59.0624 2.70828-6.8437 5.73422-13.7423 9.15625-20.3438 2.3899-.4199 4.91063-.645 7.5625-.625-.23078.6865-.66621,1.9428-.9375,2.75-13.00065,21.605-18.61169,48.0085-20.84375,62.3438-1.58048,4.7871-2.79565,8.475-2.875,8.8437l1.625.75c-.04382.4584-.09375.9062-.09375.9063l3.0625.875 .0625-.5 .40625.1562c-.00969.1052-.03125.4375-.03125.4375l3.0625.875c0,0 .029-.1409.03125-.1563l.40625.1563c.59843-1.3031 12.30811-35.7975 20.875-61.0313-2.90212,12.0759-4.91806,23.755-6.28125,33.5313-8.08008,13.941-12.875,23.6562-12.875,23.6563l3.875,1.4374c-.01772.0348-.25.5001-.25.5l5.125,1.9063c0,0 .90132-1.6926 1.5-2.8437-.02631.4121-.0625,1.0625-.0625,1.0624l3.625.5938c-.00177.031-.03125.2813-.03125.2812l5.40625.9063c0,0 .29434-9.0196 1.8125-22.3437 1.94712-3.382 4.01903-6.8925 6.34375-10.75-.32373,4.6423-.48905,8.9793-.53125,12.9062-3.07466,9.2451-5.35079,16.1394-5.46875,16.6875l3.4375,1.5625 .0625.0312 .84375.375 .03125-.0624 1.75.6874c.0046.0459.03125.2813.03125.2813l1.03125.125 1.34375.5c.00865-.0188.11074-.3082.125-.3437l.6875.0624c0,0-.05199-.718-.09375-1.75 .10609-.2973.20373-.5079.34375-.9062 .10676,1.5278.1875,2.625.1875,2.625l3.15625.3125c0,0-.14614-5.1014.125-13 2.28123-6.6482 5.28183-15.5092 8.34375-24.5-.76185,5.2549-1.25829,10.2568-1.59375,14.8437-4.72111,11.2231-6.1875,18.7188-6.1875,18.7188l3.46875,1.2812c-.05132.2374-.1875.7501-.1875.75l2.40625.875c.05212,1.5978.09375,2.7188.09375,2.7188l3.15625.4688c0,0 .00079-.2365 0-.2813l.46875.0937c.0011.0197 0,.1875 0,.1876l2.96875.4062-.125.4375 5.40625.9063 1.28125-4.2188 3.3125.9375-.21875.5 5.28125,1.4687c0,0 .3072-.6922.34375-.7812l4.75.7812c0,0-.0096-.7704.03125-2.0937l2.53125.8125 .1875.0312 .75.25v-.0624l4.375,1.0624c.02956-.0935.27015-1.2225.375-1.6874l3.0625.5c-.00177.0309-.03125.2812-.03125.2812l5.40625.9062c0,0 1.03789-30.3397 8.78125-62.1874 .49663-.8718.99464-1.751 1.5-2.625 3.68612,6.1863 7.24402,13.0199 10.65625,17.25-12.43932,24.1274-20,44.5312-20,44.5312l2.96875.8125-.28125.75 5.28125,1.4687c0,0 3.30711-8.9784 9.09375-22.0937-.73256,8.6098-1.02251,15.0808-1.125,18.3125-.09881.3487-.5,1.6563-.5,1.6562l.4375.0626c-.00288.1501 0,.6249 0,.625l3.53125.4374-.03125.0938 .125.0312c-.00021.0138 0,.1876 0,.1876l4.8125.5937 .46875.0937c0,0-3e-005-.0311 0-.0312l.15625.0312c0,0 .00033-.4173 0-.5312 .03169-.1101.34866-1.0915.46875-1.5l2.3125.375-.1875.75 5.40625.9062c0,0 .12541-.5641.15625-.6874l1.875.6874c0,0 .5944-1.1339.75-1.4374l1.84375.5312v-.0625l3.1875.7187 .6875.25c0,0-.00041-.118 0-.125l.5.125c.03478-.1184.29698-1.4234.4375-2.125l1.46875.6563 .03125-.0625 4.1875,1.5312c.01751-.0397.20926-.6062.25-.7187l.40625.0625c-.00123.0161 0,.1562 0,.1562l4.21875.5c0,0 .03094-1.0504.15625-2.5937l2.15625.5937-.21875.5313 5.28125,1.4687 1.28125-3.0312 3.3125,1.5 .03125-.0625 4.1875,1.5937c.03045-.0663.30808-.951.40625-1.2187l3.25,1.2187 .21875-.4687 2.75.4687c0,0 .33497-1.0989.40625-1.3437l3.65625,1.3437c.34695-.787 5.56537-16.9076 11.28125-34.5624 7.08241-12.1367 15.86056-25.898 25.75-38.75-20.91807,33.2982-34.5625,70.2812-34.5625,70.2812l2.96875.8125-.28125.75 5.28125,1.4687c0,0 11.16319-30.6415 28.90625-61.75-5.25471,25.9865-11.6926,57.948-11.8125,59.3126l3.59375,1.1562 .21875.0625 .71875.2187v-.0624l4.34375,1.0624c.02135-.0675.22004-.9545.28125-1.2187l.21875.0313c-.00177.0309-.03125.2812-.03125.2812l5.40625.9062c0,0 .04175-1.0882.125-2.6562l2.71875,1.1875 .03125-.0625 4.1875,1.5312c.02587-.0586.29895-.8466.375-1.0624l2.875,1.0624c0,0 2.10261-4.5468 5.78125-11.7187-1.25318,5.2937-1.625,8.4687-1.625,8.4687l3.5625,1c-.03304.2485-.09375.7813-.09375.7813l5.28125,1.4687c0,0 .04342-.4665.0625-.6562l1.5.125c-.00085.0235 0,.1875 0,.1875l4.21875.3437c0,0-.01336-.3501 0-.9062l2.84375.9062c0,0 .15096-.8298.40625-2.125l4.15625,1.2188v-.0625l4.375.9687c.09112-.3103.66556-3.2296 1.40625-7.125l2.875.9376-.0625.2812 5.25,1.6562c0,0 5.57528-31.2155 18.375-62.3124 1.29979,1.8137 2.5969,3.6686 3.875,5.5312-16.7062,23.0359-19.43751,60-19.4375,60l2.8125.3438c-.00184.0238-.03125.1874-.03125.1874l4.1875.5c0,0 1.51324-33.0491 16-55.9687 .52724.7336 1.04417,1.4413 1.5625,2.125-.22621,1.2299-.45994,2.4676-.65625,3.6875-7.20684,22.6488-14.53427,45.6985-14.75,46.7812l4.375,1.9063 .03125-.0625 4.15625,1.5312c.17693-.4013 1.73621-5.0803 3.8125-11.4374 .0277.9699.05803,1.7372.09375,2.5937-1.13559,3.0415-2.03611,5.5363-2.09375,5.75l2.53125,1.4687c.04852.5547.09375,1 .09375,1l3,.3438 .78125.2812 .125-.2812 2.875.2812c0,0-.08008-2.8519-.03125-7.375 5.30557-13.5265 16.11444-41.3121 27.25-69.9687 .94765-.0561 1.9219-.1005 2.90625-.0937l-.90625,2.7187c-13.01045,21.6092-18.61091,48.0347-20.84375,62.375-1.58048,4.7871-2.79566,8.4751-2.875,8.8437l1.625.75c-.04382.4585-.09375.9063-.09375.9063l3.0625.875 .0625-.5 .40625.1563c-.0097.1051-.03125.4374-.03125.4374l3.0625.875 .03125-.1562 .40625.1562c.5966-1.2991 12.26905-35.5874 20.84375-60.8437-2.87593,12.0009-4.89382,23.622-6.25,33.3437-8.0795,13.9402-12.875,23.6563-12.875,23.6563l3.875,1.4375c-.01773.0348-.25.5-.25.5l5.125,1.9062c0,0 .89121-1.7047 1.5-2.875-.0279.4353-.0625,1.0938-.0625,1.0938l3.625.5938c-.00177.0309-.03125.2812-.03125.2812l5.40625.9062 .03125-.7812 1.71875.4062v.0938l.625.0312 .46875.125v-.0624l2.75.1874c.0105-.0659.12164-1.5004.15625-1.875l.75.3438 .03125-.0625 1.75.6875c.00459.0458.03125.2812.03125.2812l1.03125.125 1.34375.5c.00865-.0188.11074-.3082.125-.3437l.6875.0625c0,0-.05199-.7181-.09375-1.75 .10608-.2973.20373-.5079.34375-.9062 .10676,1.5277.1875,2.625.1875,2.625l3.1875.3124c0,0-.17739-5.1013.09375-13 6.83045-19.9062 16.94717-49.7498 21.25-62.4374 13.04104-17.333 27.60739-33.5291 42.09375-43.4063 4.74045-3.0969 9.48956-5.5961 14.15625-7.3125-.22718.0122-.4601.046-.6875.0625 .42609-.1615.85626-.3216 1.28125-.4687-7.40133,7.6528-13.19299,18.1596-17.75,29.8437l3.4375-17.1875 .65625-1.8438-.40625.6876 .78125-3.9063-2.21875,6.3125-13.65625,22.7812c0,0-3.49287,10.4191-4.875,14.5313-.75108.3537-1.52239.886-2.28125,1.625-34.15284,33.2598-41.21877,69.7813-41.21875,69.7813l3.46875,1.2812-.15625.75 5.125,1.9062c0,0 4.37165-27.0258 29.15625-57.7812-8.33547,24.843-17.75924,53.0173-18.03125,54.2812l3.4375,1.5626 .0625.0312 .84375.375 .03125-.0625 4.15625,1.5937c.05026-.1094.48845-1.3549.71875-2l2,.3438c-.02691.5247-.0625.9063-.0625.9062l2.8125.2188c-.00085.0234 0,.1875 0,.1875l3.4375.2813 .375.0624c0,0-3e-005-.0311 0-.0312l.40625.0312c0,0 .00648-.563.03125-1.4062 .53754-1.8445 2.65688-8.9533 6.53125-20.3125-.59034,7.0147-.86168,12.3114-1,15.8437-.65537,2.4345-.96875,3.8438-.96875,3.8438l.8125.2188c-.00093.0544 0,.3749 0,.375l1.90625.25c-.00135.006-.03125.0937-.03125.0937l4.0625,1.0937c0,0 .07303-.2708.09375-.375l3.0625.375c0,0 .01395-1.0115.03125-2.5l.8125.0938-.03125.0938 .125.0312c-.00021.0137 0,.1875 0,.1875l4.8125.5937 .46875.0938c0,0-3e-005-.0311 0-.0312l.15625.0312c0,0 .00032-.399 0-.5 .03056-.1062.34638-1.115.46875-1.5312l2.3125.375-.1875.75 5.40625.9062c0,0 .12541-.5642.15625-.6875l1.875.6875 .75-1.4375 1.84375.5313v-.0626l3.1875.7188 .6875.25c0,0-.00041-.1181 0-.125l.5.125c.03454-.1176.29859-1.4318.4375-2.125l1.375.625c.04432,1.1803.09375,2 .09375,2l3.15625.4688c0,0-.02964-.5267-.03125-1.375l.40625.1562c.03015.7916.0625,1.2187.0625,1.2188l3.15625.4374c0,0 .00968-.6763.03125-1.6874l2.3125.2812c0,0 .03094-1.0505.15625-2.5938l2.15625.5938-.21875.5312 5.28125,1.4688 .34375-.8438 .1875.0313-.28125.75 5.28125,1.4687c0,0 .34781-.9322.875-2.3124l2.40625.9062c.03045-.0663.30808-.951.40625-1.2188l3.25,1.2188 .21875-.4688 2.75.4688c0,0 .33497-1.0989.40625-1.3438l3.65625,1.3438c.05649-.1281.49484-1.4952.78125-2.3438l2,.75c-.1497.6183-.25.9688-.25.9688l2.65625.7188 .0625.0312c-.00498.0222-.03125.1875-.03125.1875l1.90625.5 1.5625.5937c0,0 .02938-.1449.03125-.1562l.59375.1562c0,0 .13361-.6669.34375-1.625l.78125.2188c0,0 .79847-2.0913 1.9375-5-.36124,2.8955-.46875,4.5625-.46875,4.5625l3.03125.875c0,0 .62379-4.9078 2.1875-12.6563-1.31607,7.7694-1.71875,12.75-1.71875,12.75l3.0625.875c0,0 3.63099-25.0345 14.375-51.25 1.32942-1.8238 2.71294-3.673 4.1875-5.5312-2.93272,13.0275-4.85394,25.3935-6.0625,35.0938-1.96378,9.8476-3.38748,17.2744-3.4375,17.8437l1.625.5c-.05964.8723-.09375,1.5625-.09375,1.5625l3.625.5938c-.00177.0309-.03125.2812-.03125.2812l5.40625.9062c0,0 .17717-5.124.90625-13.3124 3.24559-15.4831 7.24922-34.9229 10.96875-53 1.83141-.8318 3.73736-1.5557 5.71875-2.0938 1.17247,1.6433 2.35218,3.475 3.5,5.375-8.05351,25.2666-18.1047,56.8935-18.375,58.25l4.34375,1.9062 .03125-.0624 4.1875,1.5312c.03382-.0767.35007-1.0637.46875-1.4062l2.15625.5937-.28125.75 5.28125,1.4687c0,0 .38195-.9477.78125-2l4.125.5 .46875.0938c0,0-3e-005-.0311 0-.0312l.15625.0312c0,0 .00032-.399 0-.5l.0625-.1875 2.71875.4375-.1875.75 5.40625.9062c0,0 .24566-.987.5-1.9687l1.53125.5625 .75-1.4375 1.21875.3437c-.00015.0194 0,.2188 0,.2188l3.65625.5938c-.00598.2514-.03125.7812-.03125.7812l5.40625.9062c0,0-.01203-.7955.03125-2.1562l2.0625.75c.01808-.041.20719-.6315.25-.75l.40625.0625c-.00123.0161 0,.1562 0,.1563l4.21875.5312c0,0 .03094-1.0505.15625-2.5938l2.1875.625-.21875.5 5.28125,1.4688c0,0 .75888-1.7913 1.28125-3.0312l2.40625,1.0937 .0625.0313 .84375.375 .03125-.0626 4.15625,1.5938c.03062-.0667.33839-.9483.4375-1.2188l.78125.2813c-3e-005,.0001 0,.0312 0,.0313l.09375.0312 2.375.875 .21875-.4688 2.71875.4688c0,0 .33497-1.0989.40625-1.3438l3.65625,1.3438c.34715-.7876 5.59216-16.9251 11.3125-34.5938 3.21558-5.5093 6.76137-11.3281 10.625-17.2812 .26566.111.55587.2091.8125.2812l-.21875-.25c.5607.3938 1.09197.7383 1.625,1-13.44852,25.5207-21.68749,47.8126-21.6875,47.8126l2.96875.8124-.28125.75 5.28125,1.4688c0,0 11.17099-30.6184 28.90625-61.7188-5.25447,25.9856-11.69267,57.9176-11.8125,59.2813l4.53125,1.4375 .03125-.0625 4.3125,1.0625c.58538-1.852 15.79665-75.9752 17.65625-85.0312 2.41112-3.4097 4.88768-6.737 7.4375-9.9063l.0625-.0625c2.79233.0122 5.62955.7963 8.5,1.7188l-1.8125,3.0937c0,0-27.06233,84.7726-27.46875,86.8125l4.34375,1.9062 .03125-.0624 4.1875,1.5312c.83148-1.8863 28.4375-87.5625 28.4375-87.5625l.59375-3.1875c3.07433.6866 6.14642.8744 9.1875-.1562-1.44988.2041-2.91029.1915-4.375,0 1.42884-.004 2.82691-.1952 4.1875-.6563-2.76426.3893-5.67706-.1525-8.65625-1.0625l1.21875-6.5312c4.14664.98 8.36394,2.203 12.4375,2l9.03125-20.625 .375-1.9063c4.17318,11.10511-12.07975,17.3851-21.375,18.1563l2.40625-13.0313 .5625-1.7187-.375.6562 .71875-3.875-2.09375,6.25-5.96875,10.2812c-7.12778-1.9991-14.03101-2.7564-19.4375,3.4063-.12689.0017-.2485.0265-.375.0313l1.34375-18 .375-1.75-.28125.6562 .28125-3.9062-1.40625,6.4374-8.8125,19.9688c-.23427.2041-.45609.3996-.6875.625-5.61342,5.4666-11.03989,11.6329-16.1875,18.0938-.98717-.214-1.95006-.3811-2.90625-.5313-.66371-.1422-1.3191-.2931-1.96875-.4063 4.48003-9.4593 9.35855-18.8301 14.59375-27.5 6.27325-7.7035 12.7974-14.5058 19.40625-19.8437 4.47397-3.4708 8.98771-6.3174 13.5-8.4063l-.625.0938c.48993-.2322.97874-.4758 1.46875-.6875-1.36408.3065-2.72864.7112-4.09375,1.1875-4.83996,1.0939-9.64379,3.119-14.375,5.9375 1.79901-2.121 3.64931-4.0782 5.5-5.9375 4.07209-3.9346 8.24026-7.2789 12.5-9.8438-.20929.0519-.41624.1318-.625.1876 .46327-.2848.94068-.5795 1.40625-.8438-1.33673.457-2.68099.9955-4,1.625-9.4551,3.2603-18.33737,10.3794-26.53125,19.75-3.24638,1.3455-6.48521,3.0367-9.71875,5.0312l.34375-1.9062-.71875,2.125c-3.32371,2.0742-6.62866,4.4511-9.90625,7.0938l.71875-3.625 .65625-1.8438-.40625.6875 .78125-3.9063-2.21875,6.3126-3.3125,5.5312c-6.19601-.6563-12.97938-2.8472-19.09375-2.9375l.84375-4.5 .5625-1.7187-.375.6562 .71875-3.875-2.09375,6.25-1.875,3.25c-3.72177.3075-7.12891,1.6481-9.875,4.9062 6.575-10.9797 13.71472-20.836 21.25-28.4062 1.14374-1.1051 2.27771-2.1497 3.4375-3.1562 1.36722.1526 2.765.352 4.1875.625-1.23623-.4026-2.4589-.757-3.65625-1.0626 2.80251-2.3904 5.64588-4.5126 8.53125-6.25-.20929.0519-.41624.1318-.625.1876 .46079-.2831.91193-.5809 1.375-.8438-1.33673.457-2.64974.9955-3.96875,1.625-3.13247,1.0801-6.18414,2.6017-9.1875,4.4688-.09469-.0167-.18681-.0465-.28125-.0626-10.65187-2.6094-19.76282-1.4424-27.5625,2.4688-18.92216-1.7865-32.87371,9.7436-43.09375,26.75l.65625-8.7812 .375-1.75-.28125.6562 .28125-3.9062-1.40625,6.4374-6.25,14.1563c-4.12553-1.0558-8.14231-1.5557-11.8125-.4063 .65604-1.1283 1.30139-2.2681 1.96875-3.375 6.30767-7.7597 12.88317-14.5991 19.53125-19.9687 4.47397-3.4708 8.98771-6.3174 13.5-8.4063-.21876.0297-.43761.0914-.65625.125 .49665-.2356 1.00326-.5041 1.5-.7187-1.36408.3065-2.72864.7112-4.09375,1.1875-4.83996,1.0939-9.64379,3.119-14.375,5.9375 1.79901-2.121 3.64931-4.0782 5.5-5.9375 4.07209-3.9346 8.24026-7.2789 12.5-9.8438-.20929.0519-.41624.1318-.625.1876 .46079-.2831.91193-.5809 1.375-.8438-1.33673.457-2.64974.9955-3.96875,1.625-9.4551,3.2603-18.33737,10.3794-26.53125,19.75-3.24638,1.3455-6.48521,3.0367-9.71875,5.0312l.34375-1.9062-.71875,2.125c-3.3172,2.0702-6.60371,4.4573-9.875,7.0938l.71875-3.625 .625-1.8438-.40625.6875 .375-1.8437c.68366-.2284 1.36151-.4544 2.0625-.6563-.67864.1116-1.33661.2431-2,.375l.34375-1.7813-.65625,1.8438c-3.0562.6246-5.94645,1.4368-8.6875,2.4688-4.23661,1.2243-8.13604,2.8615-11.71875,4.875-1.20579-.1469-2.39711-.2632-3.5625-.2813l.84375-4.5 .5625-1.7187-.375.6562 .71875-3.875-2.09375,6.25-1.875,3.25c-3.734.3026-7.12125,1.639-9.875,4.9062 6.575-10.9797 13.71472-20.836 21.25-28.4062 .39853-.3851.78698-.7516 1.1875-1.125h.03125c.7434-.6927 1.46872-1.3803 2.21875-2.0312 1.36722.1526 2.765.352 4.1875.625-1.23623-.4026-2.4589-.757-3.65625-1.0626 2.80252-2.3904 5.64588-4.5126 8.53125-6.25-.20929.0519-.41624.1318-.625.1876 .46079-.2831.91193-.5809 1.375-.8438-1.33673.457-2.64974.9955-3.96875,1.625-3.13018,1.0793-6.18624,2.6036-9.1875,4.4688-.09469-.0167-.18681-.0465-.28125-.0626-4.34011-1.0632-8.43644-1.4996-12.28125-1.375 1.27891-.9169 2.54891-1.7828 3.84375-2.5624-.2382.059-.48123.1234-.71875.1874 .49039-.3027 1.00703-.5951 1.5-.875-1.35886.4646-2.72197,1.0448-4.0625,1.6876-1.5574.54-3.09897,1.1645-4.625,1.9062-2.08795.294-4.09222.7508-6.03125,1.375-9.16867,1.2051-16.88361,5.716-23.375,12.4062-1.26516.1864-2.53502.4538-3.8125.7813-15.99107,2.2153-32.4031,14.599-47.5,30.6875l2.375-11.7188c.5943-.6262 1.19408-1.2444 1.8125-1.8437 1.69157-.413 3.41601-.7558 5.1875-1-1.49766.0292-2.96608.1473-4.40625.2813 5.50997-5.1535 11.97341-9.2351 19.53125-11.75-3.90247.8063-7.52807,1.9724-10.90625,3.4062-3.55656,1.1905-6.88022,2.6574-9.9375,4.4062l.15625-.7187 .59375-1.6563-.375.625 .78125-3.8437-2.1875,6.1875-.03125.0625c-2.33503,1.4083-4.53864,2.9606-6.59375,4.6563-5.11013.9012-9.82648,2.4676-14.1875,4.5624 11.58434-21.1321 28.74153-35.4229 54.125-29.4687-2.5954-.964-5.12405-1.6624-7.5625-2.1875-26.85065-7.8414-44.77402,9.3076-56.65625,33.6875 .59634-7.5031.83741-10.6075 1.3125-16.5937l.1875-.9063-.15625.4063c.06206-.782.12819-1.44.1875-2.1876 .39689-.1429.78435-.3033 1.1875-.4374-.40368.0834-.78961.1907-1.1875.2812 .18993-2.3936.40403-5.0331.5625-7.0312 4.34672.3446 8.88263,1.3896 13.625,3.25-2.43678-1.3283-4.81252-2.412-7.15625-3.2813-2.13335-.972-4.22189-1.7581-6.28125-2.375 .21964-2.7698.71126-8.8594.84375-10.5313 .04892-.126 1.1875-3.0312 1.1875-3.0312l6.84375-26.4688 .6875-1.7812-.40625.625 1-3.8125-2.375,6.0313-6.03125,9.7812-.65625-22.1875 .125-1.6875-.15625.6562-.125-3.9062zm120.0625,48.2812h.8125c-.54103.3608-1.08845.7412-1.625,1.125-1.20815-.2928-2.39363-.522-3.5625-.7187l-.375-.0937c1.53891-.1859 3.12818-.2985 4.75-.3126zm117.375,0h.84375c-8.95552,5.9716-17.32826,15.1504-24.9375,25.9688l.375-6.7812 .375-1.9063-.3125.75 .21875-4-1.28125,6.5625-3.03125,7.25 .46875-8.6562 .375-1.9063-.3125.75 .21875-4-1.28125,6.5625-7.28125,17.375c-2.88216-.5297-5.86916-1.477-8.875-2.4375 .79489-1.7291 1.63413-3.4133 2.5-5.0625 2.58477-.7913 5.25074-1.4292 8.03125-1.8125-2.55358.0498-5.0187.2756-7.40625.625 6.04472-11.1442 13.82124-20.1672 23.78125-25.125 2.71523.1692 5.53835.5626 8.46875,1.25-2.36615-.8789-4.67072-1.5495-6.90625-2.0625 4.80844-2.1335 10.1183-3.293 15.96875-3.3438zm-405.875,1.4063c.28194-.0024.55927.0283.84375.0313-10.51229,7.0031-20.18455,18.3777-28.8125,31.6874l.6875-12.5312 .375-1.9062-.3125.75 .21875-4-1.28125,6.5624-8.53125,20.4063c-3.50121,4.2583-6.88747,8.7994-10.125,13.5-.4939-.0737-.98333-.1608-1.46875-.2187-.98496-.173-1.95413-.2945-2.90625-.4063 6.91325-22.7169 18.04788-43.1763 35.96875-50.75 1.5781.2198 3.1659.4888 4.8125.875-1.31767-.4894-2.59809-.9068-3.875-1.2813 4.3856-1.7209 9.18695-2.6734 14.40625-2.7187zm282.09375,0c1.58523-.0137 3.23975.0599 4.90625.2187-9.61559,7.0778-18.48113,17.7715-26.46875,30.0938l.6875-12.5312 .375-1.9063-.3125.75 .21875-3.9687-1.28125,6.5312-10.25,24.5-1.3125,7.25c-.90892,1.7504-1.78073,3.5163-2.65625,5.2812-3.76574.1989-7.23757.8881-10.4375,2.0313 .50218-1.8586 1.00681-3.7272 1.5625-5.5625 7.24758-14.6418 15.45641-28.7714 24.375-40.0312v-.0313c2.64404-3.3369 5.36368-6.3821 8.125-9.1563l.09375-.0937c2.23881-1.212 4.58925-2.2331 7.0625-3 1.72584-.2342 3.48112-.3591 5.3125-.375zm-310.6875,3.2187c-3.45554,2.1463-6.6381,4.8503-9.5625,8-10.76662,7.1439-21.13364,18.0977-30.625,30.5938 8.86935-19.6916 21.67484-35.4654 40.1875-38.5938zm402.09375,1.2813c-7.66583,6.0186-13.81119,14.9053-18.78125,25.25-1.68405.4236-3.34205.9027-4.9375,1.4687-2.08178-.1944-4.13119-.0844-6.0625.4376 7.48056-13.0159 17.18499-23.1755 29.78125-27.1563zm-593.90625,128.5937zm374.15625-122.7812c-.17613.4642-.52907,1.4063-.71875,1.9062-.83033-.3298-1.68117-.6001-2.5-.875 1.05765-.3887 2.13221-.7317 3.21875-1.0312zm-222.40625,1.5625c-1.73362,1.8001-3.45033,3.689-5.125,5.6875l.4375-2.1562-1,2.8437c-.34261.4148-.69119.8277-1.03125,1.25-.40568.116-.81922.2199-1.21875.3437l.03125-.2187 .40625-1.9375-.3125.75 .125-1.8438c.50949-.3627 1.02191-.7152 1.53125-1.0624 2.05154-1.3403 4.11291-2.5577 6.15625-3.6563zm-44.15625,1.2813c5.0778-.0279 10.45204.9061 16.09375,3-.35509.1423-.71285.2888-1.0625.4374-3.53902,1.188-6.83088,2.665-9.875,4.4063l.15625-.7187 .59375-1.6563-.375.625 .78125-3.8437-2.1875,6.1874-.03125.0626c-2.33503,1.4083-4.53863,2.9605-6.59375,4.6562-5.12486.9039-9.84723,2.4897-14.21875,4.5938 3.65015-6.6654 7.84645-12.6494 12.6875-17.5313 1.32666-.1453 2.6646-.2112 4.03125-.2187zm259.09375,0c2.00752.0275 4.06227.1892 6.15625.5312-.92647,2.4421-2.13442,5.7378-3.3125,8.8438-4.45715,2.307-8.43168,5.1219-11.96875,8.375l1.59375-8.5 .5625-1.7188-.375.6562 .71875-3.875-2.09375,6.25-11.09375,19.1876c-2.52302-.9848-5.08577-2.0648-7.625-3.0313 7.67436-11.7075 16.77525-21.4479 27.4375-26.7187zm-284.5.5312c-12.88507,6.7433-23.68733,20.3315-32.46875,36.0625 .57929-3.8895.63205-4.1746 1.1875-7.9063 7.28372-12.6939 17.36418-23.0935 31.28125-28.1562zm61.5,3.1562-.71875,3.25c-.94752.31-1.86841.6462-2.78125,1-1.13908.3414-2.25387.6913-3.34375,1.0938 2.2763-1.9237 4.562-3.703 6.84375-5.3438zm-53.59375.5c-4.75738,6.4392-8.80563,14.0334-12.28125,22.2188l-.46875.4062 3.375-16.625c2.98033-2.3692 6.10585-4.3964 9.375-6zm256.65625.875c-5.71559,5.3541-10.91862,11.9902-15.625,19.375-1.98847-.26-3.94829-.2185-5.84375.25 6.29013-8.3435 13.41336-15.2591 21.46875-19.625zm179.125.5313-1.46875,4.1563-3.3125,5.5312c-3.24773-.3425-6.63829-1.0783-10.03125-1.75 4.42102-3.3604 9.33541-6.0663 14.8125-7.9375zm-382,2.1875c-.05537.0707-.10095.1479-.15625.2188v-.125c.05439-.0261.10174-.0679.15625-.0938zm235.15625.2188c-.40167,5.5693-.58107,7.9693-1.0625,14.6562l-6.75,11.2812-3.875,11.5313c-.9091-.1566-1.80564-.2738-2.6875-.375 7.16701-18.4449 9.8273-25.3781 14.375-37.0937zm-236.53125.5-1.1875,2.6562c-9.7568,13.2248-18.35406,29.2535-25.5625,45.0312-5.75954,6.5221-10.57441,13.0355-14.5625,19.25 5.87046-25.8876 17.6719-54.8372 41.3125-66.9374zm511.6875,1.5c-1.10281,1.5334-2.17773,3.088-3.25,4.6874l-.3125.3438 .4375-2.3125c1.04-.9303 2.08202-1.8419 3.125-2.7187zm-117.40625.0312c-1.09522,1.5236-2.15366,3.0675-3.21875,4.6562l-.3125.3438 .4375-2.3125c1.02885-.9204 2.06197-1.8194 3.09375-2.6875zm-288.5,1.4062c-1.08371,1.5075-2.13328,3.0538-3.1875,4.625-.10827.1199-.23564.2234-.34375.3438l.4375-2.2812c1.02823-.9198 2.0626-1.8201 3.09375-2.6876zm-170.9375,1.6563-10.9375,18.25c0,0-2.97163,8.8128-3.875,11.5-2.30888-.3977-4.52106-.5751-6.65625-.625 6.03775-11.2549 13.15696-21.5232 21.46875-29.125zm430.75,2.8437c3.58508.1076 7.34064.8224 11.03125,1.125-8.36706,7.5589-16.44756,16.5978-24,26.125l2.6875-8.3437 1.875-10.0625c2.5588-3.2223 5.35379-6.1902 8.40625-8.8438zm-141.15625.2813c-4.35472,11.483-5.4267,14.3677-10.875,28.75-1.72946.1627-3.39084.4297-5,.8125l3.0625-9.5312 .5-2.625c1.74696.072 3.48709-.1319 5.21875-.7188-1.4705.2071-2.95179.199-4.4375,0 1.4507.0018 2.86941-.1884 4.25-.6562-1.44419.2033-2.92556.1516-4.4375-.0626 3.28962-5.8865 7.15739-11.313 11.71875-15.9687zm-148.625,1.0937c3.94919-.072 8.16013.8468 12.28125,1.1876-2.36285,2.1358-4.7177,4.3691-7.03125,6.7187-3.7038-.1261-7.67566-1.3166-11.6875-2.5937l.78125-4.2813c1.79057-.7181 3.6849-.9953 5.65625-1.0313zm405.875,0c3.50751-.0639 7.23053.6329 10.90625,1.0313-1.61265,1.494-3.22319,3.0315-4.8125,4.625-4.10041-1.2849-8.26372-2.7344-12.25-3.3125l.21875-1.1875c1.8728-.8057 3.86152-1.1184 5.9375-1.1563zm-95.625.1876-6.40625,11.125c-.26701.3569-.5469.7032-.8125,1.0624l1.21875-6.0624c1.98391-2.1215 3.99038-4.1596 6-6.125zm117.375,0-4.5,7.75c-.59347-.0025-1.20546-.0683-1.8125-.125l.3125-1.4688c1.98902-2.1274 3.98513-4.1856 6-6.1562zm-545.6875.1562c-12.33827,12.7992-18.87869,30.872-22.25,48.3438-1.88029,2.8068-3.72567,5.5866-5.46875,8.3124 2.75023-14.7585 6.84107-30.9423 12.9375-45.3437 4.44989-4.4892 9.37669-8.3234 14.78125-11.3125zm139.8125,1.25-6.53125,11.3125c-.23023.3084-.45832.6275-.6875.9375l1.21875-6.0938c1.98391-2.1214 3.99038-4.1907 6-6.1562zm-71.71875.9062c-2.98143,6.4868-5.50988,13.4805-7.65625,20.6876-2.89638.2183-5.60392.768-8.15625,1.5624 5.0242-7.7881 10.3119-15.3369 15.8125-22.25zm236.71875.4376c-12.33105,12.7916-18.87696,30.8502-22.25,48.3124-.3337.4981-.67045,1.0039-1,1.5 .51268-6.4056.96413-11.8773 1.5-18.5937 1.97304-6.8007 4.26926-13.5293 6.96875-19.9063 4.44989-4.4891 9.37669-8.3233 14.78125-11.3124zm285.40625,1.875c.70396-.0166 1.40889.0328 2.125.0937l-2.78125,4.7813c-2.21696-.9123-4.41845-1.8217-6.625-2.5626 2.29956-1.6239 4.7537-2.253 7.28125-2.3124zm-117.875.0312c-.42756,1.0147-.87373,2.0276-1.28125,3.0625-1.29811.0557-2.63682-.046-4-.25-.10276-.0377-.2098-.0566-.3125-.0937 1.13027-.8544 2.28818-1.6656 3.46875-2.4376 .69899-.1436 1.41024-.2429 2.125-.2812zm8.46875,1.0625c2.97256.7015 5.9706,1.5596 8.9375,1.9063l-2.25,5.4062-.0625.375c-2.52063.1943-5.15385-.3012-7.84375-1.125l1.21875-6.5625zm-296.46875.3125c.69364-.0163 1.38829.0347 2.09375.0938l-2.75,4.7812c-2.21653-.9121-4.45012-1.7904-6.65625-2.5312 2.30995-1.6428 4.77193-2.284 7.3125-2.3438zm264.09375,0c.33125-.0078.66592.0208 1,.0312l-1.1875,2.7188c-.23651.2058-.48516.3975-.71875.625-5.60676,5.4602-11.01409,11.6101-16.15625,18.0625-.98515-.2134-1.95196-.3501-2.90625-.5-.53011-.1136-1.07263-.2174-1.59375-.3125 3.54298-5.3095 7.25379-10.4695 11.125-15.2812 3.1732-3.9442 6.71132-5.2561 10.4375-5.3438zm70.9375,0c2.84264-.0669 5.80016.6219 8.78125,1.3438-5.50392,5.677-10.81351,11.8878-15.90625,18.3124l2.6875-8.3437 2.0625-11.0625c.7806-.1451 1.5754-.2312 2.375-.25zm-327.0625,1.125c4.14811.9789 8.36137,2.1959 12.4375,2l-2.1875,5.2812c0,0-2.24255,12.4703-3.375,18.7188-10.58784,13.8654-19.83282,28.6991-26.9375,41.125 8.15241-25.1681 17.90625-55.5312 17.90625-55.5312l.59375-3.1876c3.08408.692 6.16803.8777 9.21875-.1562-1.4705.2071-2.95179.199-4.4375,0 1.4507.0018 2.86941-.1884 4.25-.6562-2.77458.3907-5.69665-.1461-8.6875-1.0626l1.21875-6.5312zm-81.15625.2812c3.59268.8752 7.21819,1.8084 10.75,1.75-5.367,5.5674-10.55817,11.6329-15.53125,17.9063l2.6875-8.3437 2.09375-11.3126zm359.71875.75c-.02897.0744-.06488.1444-.09375.2188-.41535.0081-.83136-.0114-1.25-.0312 .45665-.0394.89683-.1066 1.34375-.1876zm69.96875.1563-.03125.0625c-.15294-.0045-.31539-.0232-.46875-.0312 .1669-.0134.33435-.0126.5-.0313zm-.5625.8125h.125l-1.21875,2.0625c-.24068.3221-.47922.6448-.71875.9687l.59375-3c.40551-.0032.81602.0001 1.21875-.0312zm-76.75.8125c2.04066.1436 4.10528.6509 6.1875,1.2813-2.66611,7.2963-4.86324,14.9884-6.6875,22.6874-.02825.0886-.06524.1607-.09375.25-2.7156-.191-5.33908-.0888-7.84375.2813-.40802-.2753-.80797-.5426-1.21875-.75-.52854-.351-1.0583-.6378-1.59375-.8437 .82532-4.0145 2.25575-10.8813 2.5625-12.375 .1206-.3244.25258-.6457.375-.9688 1.37618-1.9383 2.76548-3.8529 4.1875-5.7188 1.33557-1.3346 2.70647-2.6272 4.125-3.8437zm-289.21875,1.375c2.66623.0735 5.38876.8091 8.125,1.6875l-1.78125,3.0938c0,0-18.92286,59.2982-25.28125,79.6562 1.43453-17.8578 5.85008-55.2617 18.9375-84.4375zm63.03125.4375c2.69665.5412 5.40947,1.4756 8.15625,2.375l-1.125,1.9688-.5625,1.8124c-1.58671,2.9185-3.01075,5.9305-4.28125,9.0313-1.50486-.311-2.97567-.5781-4.40625-.75-1.86466-.3286-3.6896-.5122-5.4375-.625 2.36822-4.7707 4.91097-9.4086 7.65625-13.8125zm-10.09375,1.1875c-2.42926,4.2241-4.70901,8.5935-6.84375,13.0625-2.65462.4417-5.15687,1.1467-7.5,2.0938 3.45789-4.276 7.01971-8.4115 10.6875-12.2813 1.19666-1.2626 2.42651-2.1824 3.65625-2.875zm260.15625.625-.09375.5313c-1.06255.0616-2.14876.0149-3.21875-.125 1.12557-.0031 2.22794-.1287 3.3125-.4063zm-8.15625.5625c2.6678.5986 5.35386.837 8,.2188-.03208.1766-.9013,5.018-1.0625,5.9062-3.00466,5.7864-5.83796,11.6654-8.46875,17.5-.81145-.2965-1.61072-.5659-2.40625-.8125-.90466-.3363-1.80254-.6317-2.6875-.9063l6.03125-18.7187 .59375-3.1875zm-380.5625,4.75c-.17705.5543-2.18146,6.7692-2.84375,8.8438-.91049.2767-1.79317,1.0575-2.65625,2.4374-.43861.7013-.85741,1.392-1.28125,2.0938 2.14201-4.5269 4.39977-8.9954 6.78125-13.375zm404.8125,2c-.23288.7292-1.37284,4.1582-1.78125,5.4375-.52028.1581-1.0255.4659-1.53125.9687 1.07431-2.1631 2.18281-4.2813 3.3125-6.4062zm-95.75,2.3438c-.28204.8387-1.20553,3.5646-1.625,4.8124-1.0629.39-2.08684.8298-3.09375,1.3126 1.54962-2.0582 3.12866-4.1072 4.71875-6.125zm117.375,0c-.28204.8387-1.20553,3.5646-1.625,4.8124-1.02409.3758-1.99666.788-2.96875,1.25l-.0625-.0312c1.52774-2.0278 3.08925-4.0427 4.65625-6.0312zm-455.15625.9374c.96669-.0163 1.93277.0179 2.9375.0626-2.56364,3.7393-5.03187,7.5662-7.40625,11.4374 .9054-3.835 1.90878-7.6686 3.03125-11.4374 .47364-.023.9545-.0544 1.4375-.0626zm49.21875.5313c-.28047.8341-1.17975,3.5184-1.59375,4.75-1.05318.3874-2.06433.8339-3.0625,1.3125 1.53398-2.0374 3.08259-4.0646 4.65625-6.0625zm-59.5.9375c-.83311,2.9411-1.62953,5.905-2.34375,8.875-2.17066-2.1894-4.31137-4.05-6.375-5.25 2.66482-1.5347 5.5701-2.7596 8.71875-3.625zm173.59375,1.1562c1.97403-.0333 4.05329.0554 6.1875.2813-1.10123,2.6982-2.08281,5.4677-2.96875,8.25-2.46838,1.9625-4.71063,4.2186-6.78125,6.6875-1.61825-2.2216-3.24385-4.2723-4.875-5.9375 1.3009-3.0203 2.65316-6.0346 4.09375-9 1.40849-.1644 2.84624-.2559 4.34375-.2813zm193.0625.6563c1.55614.0203 3.16291.1274 4.8125.3125-3.16883,3.9887-6.22066,8.0849-9.15625,12.2188l3.75-11.625 .59375-.9063zm117.09375,0c1.64738.0109 3.34095.1159 5.09375.3125-3.15306,3.969-6.20279,8.0432-9.125,12.1562 1.5546-4.8216 3.2009-9.891 4.03125-12.4687zm-178.5625.6563c-3.62108,7.4562-6.94862,14.9557-9.9375,22.1874-1.05078-1.8781-2.10445-3.7189-3.1875-5.4062 .7713-4.0539 1.63158-8.1422 2.625-12.2188 3.14638-1.9983 6.63975-3.544 10.5-4.5624zm-227.3125.75c1.6336.0112 3.32527.1187 5.0625.3124-3.1712,3.9918-6.18742,8.113-9.125,12.25 1.55358-4.8184 3.16315-9.8396 4-12.4374 .01982-.0422.04266-.0829.0625-.125zm81.125.875c-.23643.5181-.48618,1.0431-.71875,1.5624-.42881-.2675-.85491-.4852-1.28125-.6874 .65195-.3155 1.32203-.5952 2-.875zm35.90625.875c-5.9661,15.7518-11.62912,30.7129-16.46875,43.5312 .40148-3.6521.90082-7.4629 1.53125-11.4062 .37876-1.1716.46605-1.425.84375-2.5938 .64239.4845 1.28631.8757 1.90625,1.125-.50382-.725-1.01645-1.504-1.53125-2.2812 4.25183-13.1597 6.20686-19.1956 8.5-26.3126 1.66492-.8086 3.39101-1.4973 5.21875-2.0624zm-205.9375.125c2.52455,2.4619 5.11261,5.3883 7.65625,8.3437-1.1013,4.9754-2.02921,9.9227-2.84375,14.75-3.03211-5.759-6.21222-11.5884-9.53125-15.75 1.38649-2.3507 2.80625-4.6895 4.25-7.0313 .15151-.1056.31559-.2089.46875-.3124zm167.90625.7812c.30067.2929.60483.5883.90625.9062-8.82918,19.9793-14.78984,40.3947-18.09375,53.2813 3.21025-17.1869 6.05001-32.47 8.84375-47.625 .79986-1.0407 1.6265-2.0781 2.46875-3.125 1.90392-2.3665 3.87685-3.392 5.875-3.4375zm338.75.0625c-4.56433,7.2657-8.75668,14.6824-12.5625,21.875-.52278-.6171-1.02758-1.254-1.5625-1.9063 4.3761-6.6755 9.10456-13.4441 14.125-19.9687zm-151.09375,2.2187c-.41569,1.2373-.75012,2.1986-1.21875,3.5938-.51925-.1775-1.04986-.3119-1.5625-.4688l-.9375-.3437c1.18341-.9948 2.42808-1.9242 3.71875-2.7813zm117.0625.2188c.05096.0556.10528.1005.15625.1562-1.06317,3.1644-1.71026,5.0342-3.0625,9.0626-.84107-1.7159-1.68016-3.3351-2.53125-4.8438 1.69141-1.6092 3.50603-3.0656 5.4375-4.375zm-405.625,1.2188c-1.08555,3.2308-1.75862,5.2114-3.15625,9.375-.8389-1.7107-1.65115-3.3397-2.5-4.8438 1.75515-1.6659 3.64273-3.1892 5.65625-4.5312zm346.40625,1.625c-.29078.9116-.44007,1.403-.75,2.375-.66368-.7351-1.32487-1.3989-2-1.9688 .89689-.1712 1.82341-.2998 2.75-.4062zm10.25.1874c1.71401.241 3.48044.5691 5.28125,1.0313-2.43856,5.4205-4.71843,10.7758-6.8125,15.9687-.82175-1.5394-1.65784-3.047-2.5-4.5312 .00727-.0421.02396-.0829.03125-.125 1.86558-5.7806 2.59713-7.9917 4-12.3438zm-72.5625.1563c1.01872.1693 2.04502.3792 3.09375.625-.70931,2.1118-1.0112,2.9879-1.8125,5.375-.84345-1.7203-1.709-3.3322-2.5625-4.8437 .41711-.3964.84992-.7768 1.28125-1.1563zm-61.375,2.1563c-.09864.4478-.21634.8963-.3125,1.3437-.10194.1275-.18035.2776-.28125.4063 .22563-.6649.38054-1.1217.59375-1.75zm57.875,1.2812c.979,1.9641 1.95069,3.9248 2.90625,5.8438-11.64855,20.6636-20.24149,39.8407-24.25,49.2187 .76272-5.8878 2.16359-14.0141 4.65625-22.625 .71452-2.2058 1.29493-4.0993 2.03125-6.375 3.28776-9.3772 7.96976-18.8036 14.65625-26.0625zm117.40625,0c.97729,1.9608 1.95234,3.9282 2.90625,5.8438-11.65133,20.6673-20.27211,39.8393-24.28125,49.2187 .76272-5.8878 2.16359-14.0141 4.65625-22.625 .71452-2.2058 1.29493-4.0993 2.03125-6.375 3.28931-9.3817 7.99598-18.8022 14.6875-26.0625zm-405.90625,1.4062c.97982,1.9657 1.94992,3.9546 2.90625,5.875-11.64567,20.6599-20.24214,39.8111-24.25,49.1876 .76968-5.9415 2.18299-14.1457 4.71875-22.8438 .69121-2.1339 1.25745-3.9578 1.96875-6.1562 3.28776-9.3773 7.96976-18.8037 14.65625-26.0626zm-38.375,2.7188c-.37313.8612-.72942,1.7065-1.09375,2.5625l-.21875-.2813c.42677-.7623.87772-1.5177 1.3125-2.2812zm358.375.875c-1.06157,2.4087-2.04763,4.8325-2.96875,7.25-6.88914,9.4641-11.874,18.5244-15.4375,26.25 .93932-2.8955 1.83909-5.7094 2.84375-8.8125 4.54162-7.7826 9.77463-16.2207 15.5625-24.6875zm-194.21875.5625c-.08096.3563-.14059.7063-.21875,1.0625-.08674-.1322-.16313-.2746-.25-.4062 .15729-.2157.30878-.4431.46875-.6563zm-167.125,3.8437c.17466.1552.35874.2909.53125.4376-2.57286,6.1746-4.91738,12.1822-7,17.7812 .2975-2.555.62366-5.1658 1-7.8438 1.74146-3.4118 3.54388-6.8609 5.46875-10.375zm284.28125.8126c.55526.9653 1.10751,1.9154 1.65625,2.8437-.91478,1.1859-1.80258,2.4187-2.65625,3.6563 .31191-2.1393.63215-4.3098 1-6.5zm116.625,4.7812c.59489.9701 1.1631,1.8755 1.75,2.75-1.12796,2.8764-2.2081,5.6897-3.21875,8.4062-.01615.0331-.04637.0608-.0625.0938 .42175-3.6281.94661-7.3892 1.53125-11.25zm-468.09375,23.7812c-1.1758,3.3616-2.157,6.3123-3.09375,9.1563 .07634-.8088.16164-1.5883.25-2.4375 .83245-2.1001 1.7539-4.3431 2.84375-6.7188zm280.1875,0c-.09566,2.3467-.16474,4.5694-.1875,6.6876-.13273.3991-.33956.9862-.46875,1.375 .2174-2.6777.40501-4.949.65625-8.0626zm175.5,11.3438c-.00216.0337.00214.0602 0,.0938-.04326.1027-.08228.2108-.125.3124 .05254-.1611.07179-.2429.125-.4062zm-463.09375,9.2812c.00814.8635.01592,1.5706.03125,2.25-.12778.4398-.26061.8336-.34375,1.125 .00317-.6821.01274-1.3124.03125-2.2812 .08059-.3466.17816-.6805.28125-1.0938z" fill="#4f6e32"/>
  <path d="m530.01 298.36-0.59375 7.1562-7.0312 27.719s-1.1576 15.881-1.4688 20.187c-20.928 14.698-38.719 45.272-52.031 74.688-0.94939 0.5226-1.8673 1.0966-2.7812 1.6874 2.1284-10.346 5.375-26.219 5.375-26.219l0.46875-6.4063c3.2103 0.3909 6.3687 0.2813 9.4062-1.0312-1.5902 0.3573-3.2005 0.463-4.8438 0.375 1.5822-0.1252 3.13-0.4613 4.5938-1.0938-2.8111 0.6316-5.8398 0.3914-8.9688-0.25l1.5938-21.469 0.40625-1.9063-0.3125 0.7188 0.3125-4.25-1.5312 7-7.9062 17.875c-3.6624-1.1581-7.3413-2.4078-10.938-3.125 6.9839-11.981 14.535-22.924 22.562-31.5 5.1345-5.2539 10.425-9.675 15.844-12.938-0.25045 0.0621-0.50024 0.1516-0.75 0.2187 0.52211-0.3217 1.0377-0.6395 1.5625-0.9374-1.4418 0.4929-2.8584 1.1042-4.2812 1.7812-15.468 5.317-29.532 20.061-41.75 38.438-6.6157 0.9304-14.504-1.609-21.969-2.7187 11.697-22.764 29.588-38.31 56.938-33.063-2.9577-0.9631-5.807-1.6616-8.5625-2.125-27.888-6.8046-46.1 10.279-58 35.031-0.70875 0.1274-1.4138 0.2846-2.0938 0.5-1.9441 0.2381-3.8396 0.5628-5.6875 0.9687-3.433 0.4764-6.7162 1.2357-9.8438 2.2188l1.6875-8.375 0.65625-1.8438-0.40625 0.6876 0.84375-4.2188-2.4062 6.7812-5.2188 8.7188c-52.268 21.583-59.5 112.19-59.5 112.19l3.3438 1s0.03572-0.493 0.15625-1.3437l0.4375 0.0937c-0.09083 0.8589-0.125 1.3125-0.125 1.3125l3.3438 0.9688s0.06121-0.4692 0.125-0.875l5.3125 0.875s-1.1076-37.05 27.125-81.188c1.776-2.7765 3.7574-4.1436 5.9062-4.4374-6.2179 18.495-26.837 79.861-27.25 81.781l3.75 1.7188 0.0625 0.0312 0.90625 0.4062 0.03125-0.0624 4.5625 1.75c0.04643-0.1012 0.46756-1.3195 0.65625-1.8438l0.21875 0.0312-0.21875 0.8438 5.9062 0.9688s8.7155-35.479 24.688-71.813c2.2663 2.6373 4.4967 5.2134 6.625 7.4376-1.3587 7.6577-2.4093 15.041-3.2188 21.875-11.152 22.674-17.813 40.594-17.812 40.594l3.25 0.9063-0.3125 0.8124 5.75 1.5938s2.4272-6.5708 6.75-16.781c-0.32003 5.9596-0.375 9.5624-0.375 9.5624l3.9688 0.5c-6.8e-4 0.041 0 0.3438 0 0.3438l1.25 0.1562c-0.43333 1.4874-0.75 2.5001-0.75 2.5l4.4688 0.75-0.1875 0.5938 5.9062 0.9688 0.25-0.875 5.3125 0.875s-0.3971-12.867 5.0625-32.469c3.2389-9.09 7.1604-19.469 11.656-30.312 2.9266-5.9356 6.3682-12.093 10.406-18.406 1.7929-2.8029 3.7966-4.1614 5.9688-4.4374 3.1456 2.4614 6.4389 5.9749 9.7188 9.7187-1.2082 5.9675-1.6559 8.1358-3.2188 15.875-19.046 22.662-26.812 57.812-26.812 57.812l2.9688 0.8125c-0.00486 0.0217-0.03125 0.1875-0.03125 0.1875l4.4375 1.2188s0.27262-1.3757 0.8125-3.6563l2.25 0.8125-0.375 0.7812 5.625 2.0626s0.44701-1.0236 1.0312-2.25l2.625 0.8437 0.09375 0.0313 0.90625 0.2812v-0.0625l0.65625 0.1563c-3e-5 0 0 0.0312 0 0.0312l0.40625 0.0625 3.6875 0.9063c0.00491-0.0156 0.0556-0.2559 0.0625-0.2813l1.75 0.2813s6.94-24.328 18.75-54.125c0.83399-1.3042 1.7022-2.5928 2.5625-3.9063 0.23025 0.0902 0.46358 0.1871 0.6875 0.25l-0.28125-0.3125c1.1192 0.7924 2.1738 1.3714 3.1875 1.6562-0.85502-0.9832-1.7065-2.0451-2.5938-3.125 3.4178-5.1677 7.0345-10.384 10.812-15.5 2.8095-0.6029 5.728-0.9489 8.8125-0.9374-8.0717 24.021-24.59 73.242-24.969 75l3.75 1.7187 0.0625 0.0313 0.90625 0.4062 0.03125-0.0625 4.5312 1.75c0.38368-0.8356 6.1666-17.762 12.531-36.438-0.3852 6.5385-0.47239 12.476-0.40625 17.469-0.92699 8.7039-1.2188 14.156-1.2188 14.156l1.875 0.3125c0.04388 0.4912 0.09375 0.9688 0.09375 0.9687l3.4688 0.375s-0.02629-0.319-0.03125-0.4062l0.5 0.0938 0.03125 0.2812 3.4375 0.3438s9e-5 -0.0604 0-0.0626l0.4375 0.0626s1.6965-51.129 17.094-92.969c-0.81514 11.351-1.271 17.762-2.0625 28.844-7.5776 32.628-9.2188 62.156-9.2188 62.156l3.9688 0.6562c-0.00236 0.0412-0.03125 0.3438-0.03125 0.3438l3.8125 0.625v0.0312h0.28125l0.65625 0.125 0.25 0.0626v-0.0313l0.90625 0.1563s-3.1e-4 -0.1472 0-0.1563l2.0625 0.1563c0.12767-0.8016 2.0819-25.145 4.3438-53.375 2.8809-14.909 7.0024-30.984 12.969-45.531 1.1514 0.2525 2.319 0.4091 3.4688 0.5-16.591 42.622-19.531 96.438-19.531 96.438l3.9375 0.6562c-0.00236 0.0411-0.03125 0.3438-0.03125 0.3438l5.9062 0.9688s4.5266-136.97 66.25-146c1.8355 0.2431 3.7041 0.5806 5.625 1.0312-1.2488-0.4638-2.4723-0.8498-3.6875-1.2188 5.2075-0.5267 10.815-0.1953 16.844 1.2188-2.9005-1.0773-5.7167-1.8937-8.4375-2.4688-7.3107-2.1084-14.015-2.4934-20.156-1.5-5.0822-0.7516-9.8514-0.6718-14.312 0.1876-17.782-3.1175-31.71 4.2456-42.594 17.125 0.52033-6.5576 1.2486-15.622 1.5312-19.188 2.5371-2.0564 5.0897-3.9045 7.6875-5.4687-0.23097 0.0573-0.45712 0.126-0.6875 0.1875 0.50989-0.3136 1.0188-0.6154 1.5312-0.9062-1.4487 0.4953-2.8829 1.1-4.3125 1.7812-1.3411 0.462-2.6801 0.9935-4 1.5938 0.18219-2.299 1.1562-14.5 1.1562-14.5l-0.90625-29.688 0.1875-2.1874-0.21875 0.8437-0.125-4.3437zm-408.56 1.5937-1.0625 6.9687-9.3125 27.156s-5.6808 40.131-11.344 80.5l-0.28125-0.0313c-60.494-10.589-63.688 86.5-63.688 86.5l3.0938 0.25c-7.8e-4 0.0216 0 0.1875 0 0.1876l4.5625 0.375s0.03313-1.0885 0.09375-2.6563l0.71875 0.1875c-0.03655 0.2746-0.125 0.8437-0.125 0.8438l5.75 1.625s0.13754-1.3468 0.53125-3.7813l2.5625 0.9375-0.375 0.7812 5.625 2.0626s15.663-34.138 38.719-67.25c-2.8138 20.1-5.4227 38.963-7.0625 50.875-1.2394 7.352-1.7119 12.18-1.8438 13.625-0.01313 0.1182-0.12352 0.9636-0.125 1l3.125 0.9687v0.0937l0.65625 0.0938 0.59375 0.1875v-0.0937l2.4375 0.375 0.40625 0.125s-3e-4 -0.0605 0-0.0626l0.375 0.0626c0.07651-0.3225 0.80741-4.9878 1.7812-11.406 2.2792-10.712 6.5168-27.633 13.688-45l0.15625 0.1875c-2.0692 10.255-3.5905 17.867-5.4375 27.094-4.1984 12.591-7.5813 22.774-8.0938 24.531-0.03897 0.0783-0.21875 0.4062-0.21875 0.4062l0.0625 0.0313c-0.00817 0.0308-0.08977 0.294-0.09375 0.3125l3.75 1.7188 0.21875 0.0937 0.78125 0.3437 0.03125-0.0624 4.5312 1.75 0.03125-0.0938 0.25 0.0938 0.09375-0.1563 0.46875 0.1563c0.01425-0.0324 0.15907-0.5171 0.1875-0.5938l2.5 0.5938c0.01644-0.052 0.18043-0.7776 0.21875-0.9376l2.5312 0.9376s2.0302-12.408 10.812-30.281c5.2382-8.8894 11.485-19.046 18.469-29.531 1.8583-2.4116 3.8127-4.8593 5.9062-7.3124-17.225 25.835-18.562 66.312-18.562 66.312l3.0938 0.25c-7.8e-4 0.0216 0 0.1875 0 0.1876l4.5625 0.375s0.21153-52.478 26.031-75.781c2.5497 3.3663 5.0883 7.5644 7.5312 11.812-17.395 31.219-28.281 60.656-28.281 60.656l3.2188 0.9063c-0.05353 0.143-0.28125 0.7812-0.28125 0.7813l5.75 1.625 0.3125-0.8126 2.1562 0.8126s10.929-21.583 27.5-47.813c1.1048 1.2091 2.2051 2.1498 3.2812 2.6876l-0.15625-0.2813c0.91994 0.9444 1.8374 1.7002 2.75 2.1563-1.3257-2.2826-2.6815-4.8182-4.0625-7.4376 6.2258-9.7349 13.217-20.014 20.656-30-6.2411 17.891-8.3854 37.26-8.9375 52.469-6.3863 14.196-8.3125 23.906-8.3125 23.906l3.7812 1.4063c-0.05839 0.2695-0.1875 0.8438-0.1875 0.8437l5.625 2.0626s0.09313-0.4809 0.125-0.6563l3.0312 0.3437s-0.26372-4.0398-0.25-10.687l0.125-0.375c0.19584 6.8554 0.59375 11.031 0.59375 11.031l3.4688 0.3438s-0.39571-9.5737 0.5625-23.594c5.0271-11.575 13.169-26.338 26.094-41.844-3.1359 9.3436-4.3664 13.04-7.75 23.156-10.674 21.905-16.969 38.969-16.969 38.969l3.2188 0.9063c-0.05497 0.1468-0.3125 0.7812-0.3125 0.7813l5.75 1.625s0.14108-0.3649 0.15625-0.4063l1.4062 0.4063 0.46875-1.0938 2.8438 1.0938c0.34387-0.7489 5.154-14.747 10.656-30.875 3.4237-7.0819 7.371-14.952 11.781-23.219-11.407 28.512-17.844 51.781-17.844 51.781l4.4688 0.75-0.1875 0.5938 5.875 0.9688s8.1709-28.52 21.812-61.625c3.5075 6.1196 6.9233 11.942 10.188 14.937-12.309 20.967-17.5 44.469-17.5 44.469l2.9688 0.8125c-0.00486 0.0217-0.03125 0.1875-0.03125 0.1875l4.4375 1.2188s8.1673-42.925 32.125-64.25c-17.487 31.323-28.438 60.937-28.438 60.937l3.25 0.9063c-0.05498 0.1468-0.3125 0.7812-0.3125 0.7813l5.75 1.625s8.0699-22.038 21.438-48.469c-4.1028 22.78-8.0532 44.962-8.125 46.031l3.9375 1.125v0.0313l0.25 0.0625 0.78125 0.2188v-0.0626l4.7812 1.0626c0.01228-0.0419 0.13136-0.6387 0.15625-0.75l4.5312 0.75s9.3626-38.042 26.438-75.688c1.2812 0.1488 2.58 0.3945 3.9062 0.6563-12.934 34.166-25.019 66.154-25.281 67.125l2.8438 1.625-0.03125 0.0937 0.5625 0.2188 0.59375 0.3438 0.03125-0.0938 3.0312 1.1875c0.31304-0.6388 7.2708-18.475 15.75-40.25-3.6027 24.016-2.375 43.812-2.375 43.812l3.4375 0.4688s-0.10312-5.6033 0.40625-14.469c-0.23492 8.8857 0.09375 14.469 0.09375 14.469l3.4375 0.5s0.00107-67.44 28.688-105.94c1.8593-0.0871 3.6812-0.4151 5.4688-1.1874-1.5495 0.3481-3.1186 0.4202-4.7188 0.3437 1.5376-0.133 3.0438-0.4468 4.4688-1.0625-1.3026 0.2927-2.6488 0.4063-4.0312 0.375 2.0817-2.6636 4.3054-5.1724 6.6875-7.5 4.6192 0.4859 9.146 0.5129 13.188-1.7812-1.5357 0.525-3.1142 0.7835-4.75 0.875 1.5546-0.296 3.0233-0.7775 4.4062-1.5626-3.2462 1.1099-6.9004 1.0205-10.75 0.5 6.4565-5.795 13.987-10.248 22.781-12.781-4.4842 0.7371-8.6717 1.8669-12.562 3.375-6.3812 1.9114-12.065 4.6806-17.094 8.1875-2.5829-0.5251-5.1771-1.0486-7.7188-1.4063l16.25-41.875 7.4688-28.969 0.71875-1.8437-0.40625 0.6562 1.0625-4.125-2.5625 6.5625-15.094 24.438s-10.059 26.524-17.125 45.156c-3.4873 0.7322-6.6316 2.5247-9.1875 6.0626-5.852-0.9364-11.364-0.2046-15.906 5-2.9403 3.3691-5.8077 6.9485-8.5938 10.656l0.15625-0.8438 1.6562-29.969 0.34375-1.8437-0.28125 0.7187 0.21875-4.25-1.375 6.9687-8.0625 19.344c-6.7642-0.9084-14.173-4.3608-21.156-5.6562 1.5144-2.5594 3.0576-5.0879 4.625-7.5313 4.6098-5.2642 9.2991-10.061 14.062-14.156l0.8125-0.6562c0.53539-0.4512 1.0883-0.879 1.625-1.3125 4.8779-3.7842 9.799-6.8788 14.719-9.1563l-0.84375 0.125c0.57755-0.2756 1.1723-0.5316 1.75-0.7812-1.4687 0.33-2.9364 0.7706-4.4062 1.2812-4.4725 1.0065-8.9207 2.7758-13.312 5.1563 1.5878-1.8192 3.2198-3.5245 4.8438-5.1563 4.4398-4.2898 8.9806-7.9222 13.625-10.719-0.23097 0.0573-0.45712 0.126-0.6875 0.1875 0.50989-0.3136 1.0188-0.6154 1.5312-0.9062-1.4487 0.4953-2.8829 1.1-4.3125 1.7812-13.803 4.7553-26.496 17.036-37.75 32.688-3.5409 3.599-7.0207 7.4881-10.406 11.594-0.90923 0.677-1.8105 1.4685-2.6562 2.4376-4.9906 5.7183-9.7538 12.019-14.281 18.594l1.7188-5.0937 5.9062-29.344 0.65625-1.8438-0.40625 0.6876 0.84375-4.2188-2.4062 6.8125-9.4688 15.812c-1.4995 0.3138-3.0163 0.3909-4.5625 0.3125 1.5594-0.1292 3.0873-0.4386 4.5312-1.0625-4.9986 1.1231-10.681-0.4602-16.438-2.2812 1.6675-2.2128 3.4313-4.3228 5.3125-6.3126 0.04862-0.046 0.10762-0.079 0.15625-0.125s0.07911-0.1082 0.125-0.1562c2.9443-2.7747 5.9387-5.3361 8.9062-7.7188 4.5027-3.2166 9.4947-5.8451 15.031-7.6874-2.4388 0.5039-4.7831 1.1085-7.0312 1.8437 4.8106-3.0577 9.6063-5.5076 14.344-7.25-0.25132 0.0135-0.49843 0.0442-0.75 0.0625 0.57452-0.2181 1.1461-0.4622 1.7188-0.6562-1.5794 0.2224-3.153 0.5758-4.75 1-14.152 2.0877-28.61 11.396-42.344 24.25-6.95-1.6581-13.598-1.7079-18.906 4.375-5.4427 6.2364-10.644 13.151-15.531 20.375-10.362-0.2689-18.8 2.9174-25.688 8.1874-0.17396-0.0773-0.35661-0.1562-0.53125-0.2187-0.60274-0.5246-1.2044-0.9684-1.8125-1.3437 14.359-19.178 30.467-37.179 46.469-48.094 5.1685-3.3765 10.349-6.0661 15.438-7.9375-0.25873 0.0139-0.52225 0.0435-0.78125 0.0625 0.57452-0.2181 1.1461-0.4622 1.7188-0.6562-1.5794 0.2224-3.153 0.5758-4.75 1-18.609 2.7453-37.743 18.031-55.062 37.344-5.6229 0.5543-11.767-2.092-17.938-4.625 8.9845-7.8961 19.522-13.516 31.875-15.219-4.3251 0.0843-8.4203 0.5823-12.312 1.4374-7.2183 1.0016-13.754 3.2137-19.656 6.3126l2.5-12.469 0.65625-1.8438-0.40625 0.6876 0.84375-4.2188-2.4062 6.8125-0.125 0.2187 0.40625-2.2187 0.625-1.875-0.40625 0.7187 0.78125-4.25-2.3125 6.875-9.125 15.781c-0.74518-0.1955-1.4806-0.3638-2.2188-0.5l1.5312-20 0.40625-1.9063-0.3125 0.7188 0.3125-4.25-1.5312 6.9688-8.1875 18.562c-2.3667 0.609-4.6764 1.8581-6.8438 3.9688-2.2136 2.1557-4.3759 4.4186-6.5312 6.75 5.023-33.731 10.25-69.156 10.25-69.156l0.90625-29.906 0.28125-1.9687-0.25 0.75 0.125-4.2813zm543.78 44.906c-1.4487 0.4953-2.8829 1.1-4.3125 1.7812-8.9224 3.0739-17.375 9.2923-25.281 17.531-2.4553-0.6947-4.86-1.1457-7.2188-1.4062 3.954-2.8469 7.9304-5.2532 11.906-7.0938l-0.84375 0.125c0.57755-0.2756 1.1723-0.5316 1.75-0.7812-1.4832 0.3333-2.9844 0.795-4.4688 1.3125-5.1483 1.1659-10.276 3.29-15.312 6.25-7.8563 0.5028-15.129 3.363-21.844 7.9063l0.125-2.6563-0.59375 2.9687c-3.3785 2.3342-6.5951 5.1076-9.6875 8.2188l0.375-2.0312 0.625-1.9063-0.40625 0.7187 0.78125-4.25-2.3125 6.875-2.3438 4.0626c-18.253 20.437-31.243 52.67-39.312 78-10.86 21.628-17.344 37.969-17.344 37.969l4.3438 1.2187-0.25 0.5626 5.7812 1.625s0.68267-1.5756 0.9375-2.1876l0.1875 0.0626-0.0625 0.3124 5.6875 1.8126s0.20029-1.0166 0.5-2.5313l1.625 0.7187c-0.02429 0.2813-0.0625 0.6876-0.0625 0.6876l3.0938 0.375c-0.00168 0.0218-0.03125 0.1874-0.03125 0.1874l0.84375 0.0938 1.25 0.4688c0.00679-0.0154 0.08372-0.2557 0.09375-0.2813l2.375 0.2813s0.18177-4.127 1.0312-10.531c4.3803-13.385 10.166-31.225 16.406-50.562 2.563-4.0463 5.4813-7.7992 8.8438-11.062-5.0827 28.074-12.33 68.116-12.438 69.719l0.0625 0.0313-0.03125 0.0937 0.96875 0.1563 2.0312 0.5937c-0.0095 0.1164-0.0625 0.4376-0.0625 0.4376l1.5312 0.1874 1.5312 0.25c-7.2e-4 0.0095 0 0.125 0 0.125l2.6562 0.3126h0.03125l1.0312 0.25 0.03125-0.0626 0.40625 0.0626s-3e-5 -0.0312 0-0.0313l0.40625 0.0313s0.05101-0.7228 0.125-1.75c0.09464-0.3239 0.26407-0.918 0.4375-1.5l3.5625 1.125-0.0625 0.3124 5.6875 1.8126s7.4237-41.486 24.656-78.469c3.9054-2.3669 8.2585-4.1185 13.094-5.0938-0.93676 3.5638-1.809 7.1463-2.5938 10.719-17.779 34.594-20.313 66.469-20.312 66.469l2.7812 1.0937c-0.02522 0.2652-0.09375 0.8437-0.09375 0.8437l4.125 1.625s0.89341-15.866 8.125-38.281c-2.8324 22.558-3.0938 39.531-3.0938 39.531l3.375 0.4376c7.8e-4 0.0126 0 0.1562 0 0.1562l0.59375 0.0938c-8e-5 0.0056 0 0.1249 0 0.125l5.9375 0.75s4e-5 -0.1192 0-0.125l0.84375 0.125s0.01098-45.077 15.688-82.563c4.5866 7.1144 9.2498 18.726 13.375 25-2.9781 14.072-4.8356 27.165-6 37.125-2.979 9.444-5.1044 16.176-5.2188 16.75l3.4688 1.5313c-7e-4 0.0125 0 0.1875 0 0.1875l0.6875 0.125 0.59375 0.25 0.03125-0.0625 4.5625 1.6563c0.01515-0.0344 0.18757-0.5405 0.21875-0.625l3.75 0.625s0.03472-0.6498 0.09375-1.8438l0.59375 0.25 0.03125-0.0625 4.5625 1.6563c0.90654-2.0565 31-95.469 31-95.469l5.4688-29.406 0.625-1.9063-0.40625 0.7187 0.78125-4.25-2.3125 6.875-12.094 20.938 3.7188-20.125c12.344-17.43 29.386-27.868 52.938-22.344-2.9112-1.0813-5.7074-1.8934-8.4375-2.4688-19.291-5.557-34.316 0.7654-46.031 13.344-0.67537-0.282-1.3628-0.5326-2.0312-0.7812-6.9651-3.1764-13.567-4.5881-19.812-4.5 10.081-8.1134 22.649-11.949 38.344-8.9376-2.9469-0.9596-5.7851-1.6615-8.5312-2.125-18.938-4.6267-33.429 1.7732-44.5 14.094-1.9918 0.8107-3.9386 1.807-5.8438 2.9062-1.1818-0.5332-2.3704-1.0057-3.5312-1.4374-0.46047-0.21-0.9177-0.4306-1.375-0.625 2.8985-3.6626 5.8784-7.0201 8.9062-10.063 4.4398-4.2898 8.9806-7.9222 13.625-10.719-0.23097 0.0573-0.45712 0.126-0.6875 0.1875 0.50989-0.3136 1.0188-0.6154 1.5312-0.9062zm-106.88 12.906c-6.8092 3.8942-12.749 9.7205-17.938 16.812-2.7678 1.0988-5.3737 2.3846-7.8438 3.8125 7.0105-9.6412 15.474-17.058 25.781-20.625zm-37.875 1.9688c-0.46868 6.4897-1.0093 13.939-1.75 24.219-1.0959 1.9214-2.1405 3.9099-3.1562 5.9375l1.875-9.4062 0.71875-2-0.4375 0.75 0.84375-4.25-2.4375 6.875-6.9062 11.531c-3.1784 0.3081-6.2105 1.5976-9.0625 4.375-4.2535 4.1422-8.3837 8.6494-12.406 13.375 9.5229-19.398 20.583-38.047 32.719-51.406zm45.219 1.9374c-11.426 8.9983-20.116 23.683-26.719 40.188-1.091-0.191-2.1987-0.4883-3.3125-0.8126 7.1825-16.893 16.915-31.483 30.031-39.375zm66.719 5.1876h0.6875c-11.882 13.207-22.43 30.844-31.375 48.937-2.2227 0.1492-4.3616 0.4295-6.4062 0.9063 0.5956-3.2346 2.5-13.531 2.5-13.531l0.46875-8.8124c7.3947-9.8882 15.159-18.844 23.094-25.969 3.5426-0.9743 7.2027-1.5102 11.031-1.5312zm43.875 0c3.9184-0.0216 7.9938 0.4841 12.219 1.5937-1.3057 1.4416-2.5895 2.9409-3.8125 4.5313-2.9231 0.6776-5.7242 1.5038-8.375 2.5312-14.755 4.4199-25.697 13.589-33.781 25.125 4.2865-11.422 9.7243-21.891 16.625-30.125 5.3536-2.3352 11.058-3.6229 17.125-3.6562zm-35.406 0.75c1.6992 0.3117 3.4359 0.7065 5.1875 1.2187-5.0942 3.0443-9.8686 7.0656-14.344 11.812 2.9638-4.6027 6.0187-8.9787 9.1562-13.031zm43.25 6.125c-13.06 17.39-21.406 42.794-26.688 66.281-4.4217-9.732-9.1364-19.909-13.719-22.094 0.80594 0.107 1.6111 0.2309 2.4375 0.375-0.7939-0.2193-1.5674-0.4113-2.3438-0.5937 8.3948-19.398 21.087-36.525 40.312-43.969zm-147.78 6.9062c-3.3042 5.3433-6.2923 11.199-8.9375 17.375-0.4693-0.1929-0.93638-0.4009-1.4062-0.5938 0.23845-2.9982 0.27234-3.4793 0.5-6.3437 2.9542-3.8357 6.2167-7.339 9.8438-10.438zm103.88 3.4688c-4.86 9.5825-8.7207 20.453-11.781 31.594-3.8626 0.0529-7.4587 0.6049-10.812 1.5937 6.3193-12.528 13.805-24.223 22.594-33.187zm-231.16 0.7187c-1.2998 0.9613-2.4976 2.2099-3.5938 3.7813-4.7298 6.7802-9.1466 14.206-13.219 21.906l1.25-3.6562 3.2188-16c3.8675-2.4555 7.9693-4.5084 12.344-6.0313zm-56.906 0.9063c1.4083-0.0257 2.8552 0.1058 4.3125 0.25-2.6502 2.1045-5.1252 4.4003-7.4062 6.875-0.41695-0.1167-0.83087-0.2196-1.25-0.3438 1.153-2.969 1.5241-3.9015 2.5938-6.6562 0.58415-0.0565 1.1534-0.1142 1.75-0.125zm72.75 0c6.7725-0.1235 14.272 2.4067 20.938 1-0.70579 1.0836-1.4008 2.1753-2.0938 3.2812-2.6062 0.735-5.0651 2.2106-7.2812 4.75-10.333 11.84-19.767 26.128-27.906 40.312 3.0166-16.742 7.6355-34.324 14.688-49.25 0.54272-0.049 1.1029-0.0837 1.6562-0.0937zm21.562 0.0312c-0.03344 0.0507-0.06034 0.1055-0.09375 0.1562-0.2937 0.0295-0.57848 0.0454-0.875 0.0626 0.32721-0.0629 0.64825-0.1368 0.96875-0.2188zm146.53 1.9375-0.03125 0.0937c-0.99759 1.161-1.9853 2.3327-2.9688 3.5313 0.99006-1.24 1.9726-2.4549 3-3.625zm-312.69 4.8437c6.4108-0.1507 13.339 2.9863 20 3.375l-2.4062 5.7813s-2.7462 15.225-4.4375 24.562c-0.07788 0.1284-0.17233 0.2465-0.25 0.375-11.163 5.0777-20.017 15.047-26.844 26.031-3.066-5.7691-6.2778-12.133-9.625-17.406 5.979-14.126 12.91-28.831 20.594-42.375 0.97747-0.2099 1.9633-0.3201 2.9688-0.3438zm-64.281 0.1876c-6.8261 6.7752-13.411 14.364-19.688 22.25-0.50737-0.0894-1.0006-0.1445-1.5-0.2188 3.8168-5.7076 7.835-11.229 12-16.406 2.8316-3.5196 5.9284-5.1102 9.1875-5.625zm113.5 0.625c-6.0283 9.2835-11.509 19.536-16.375 29.906-2.706-0.2504-5.3274-0.1998-7.8438 0.0625 5.4133-8.722 11.282-17.24 17.5-24.969 2.104-2.6152 4.3636-4.1641 6.7188-5zm-101.91 0.5624c6.0877 1.4687 12.276 3.2643 18.031 0.9063l-5.4062 9.0313s-3.7292 11.129-5.1562 15.375c-1.2574 0.2729-2.5348 1.0056-3.8125 2.25-10.528 10.253-18.669 20.785-24.969 30.625 3.3375-19.671 9.5838-41.503 21.312-58.188zm226.03 0.0313c3.2442-0.0763 6.626 0.7005 10.031 1.5313l-2.8125 6.375s-2.6467 13.126-3.9062 19.344c-2.8532-2.535-5.6447-4.3056-8.25-4.8437-1.0181-0.5702-2.0239-1.0289-3-1.3126-0.70204-0.2981-1.3876-0.5168-2.0625-0.625-0.76801-0.45-1.5104-0.8266-2.25-1.0937 3.1508-6.5159 6.4827-12.973 9.9688-19.188 0.75316-0.1238 1.5122-0.1694 2.2812-0.1875zm-106.72 0.7813 0.40625 0.0937c-0.25691 0.3002-0.52912 0.6017-0.78125 0.9063 0.17738-0.4568 0.19911-0.5471 0.375-1zm-10.375 2.1562c-4.6876 12.367-6.1864 16.318-11.094 29.281-1.23-0.451-2.4285-0.8408-3.625-1.1874 4.413-9.6347 9.3222-19.21 14.719-28.094zm72.594 0.25c-4.0107 11.317-7.0075 23.421-9.2812 35.156-1.8713-2.2944-3.746-4.5161-5.625-6.5624 4.4583-9.7939 9.4311-19.552 14.906-28.594zm-23.344 2.2812-2.6562 4.4376s-3.01 8.9888-3.8438 11.469c-0.26964-0.1-0.54627-0.2039-0.8125-0.2813-0.70204-0.2981-1.3876-0.5168-2.0625-0.625-0.87536-0.513-1.7245-0.9459-2.5625-1.2187 3.6094-5.0032 7.5876-9.6632 11.938-13.781zm-245.31 0.2188c6.2648 1.857 12.675 4.8389 18.969 3.5938-13.28 14.992-25.458 32.238-35.438 47.875 0.16291-0.5042 0.18134-0.4974 0.34375-1 7.3384-21.58 14.688-43.25 14.688-43.25l1.4375-7.2188zm385.28 0.5625 0.65625 0.2187c-0.27888 0.6798-0.57209 1.3452-0.84375 2.0313 0.08691-1.0923 0.10154-1.1695 0.1875-2.25zm-365.41 2c-0.20186 0.2254-0.39239 0.461-0.59375 0.6875-1.0767 0.0479-2.1351-0.0158-3.2188-0.1562 1.2943-0.0067 2.5685-0.1883 3.8125-0.5313zm-41.375 4.2813-1.0625 5.2187c-4.5716 6.1447-8.468 12.876-11.781 19.812l-0.0625-0.0938c0.6184-4.1439 1.0932-7.3978 1.7188-11.594 3.6174-4.614 7.3401-9.0983 11.188-13.344zm381.59 2.125c-0.20592 0.6121-3.556 10.643-5.0938 15.219-2.3262-0.4191-4.5882-0.6461-6.7812-0.6875 3.8153-5.0122 7.7833-9.8945 11.875-14.531zm84.375 5.0312c-0.31601 1.742-0.95927 5.3927-1.4375 8.0312-1.8997 1.1885-3.7016 2.499-5.4062 3.9688 0.21969-0.6816 0.48635-1.4695 0.6875-2.0938 2.0021-3.3202 4.0551-6.6289 6.1562-9.9062zm-487.44 1.5312c0.6973-0.0117 1.4096-0.0171 2.125 0-0.1128 0.8042-0.13717 1.008-0.25 1.8126-1.1585 1.4472-2.3053 2.9017-3.4375 4.375-0.52705-0.2723-1.0382-0.4885-1.5625-0.6563-0.93862-0.6684-1.853-1.2073-2.7812-1.5937-0.68062-0.3841-1.3574-0.7226-2.0312-0.9063-0.94977-0.7037-1.8784-1.2252-2.8125-1.5937 3.3242-0.8737 6.8964-1.3724 10.75-1.4376zm97 0.0313c0.51532 0.0228 1.0379 0.0871 1.5625 0.125-3.2473 4.0911-6.4237 8.2462-9.4688 12.438 2.5366-4.2329 5.1651-8.4463 7.9062-12.562zm-10.406 0.625c-3.881 5.852-7.5541 11.868-11 17.875-2.7328-4.0779-5.5782-7.31-8.5-8.8125 5.3803-4.4781 11.799-7.731 19.5-9.0625zm416 3.25c-3.2075 6.6498-6.1887 13.301-8.9375 19.812 1.5265-8.2673 2.3287-12.409 3.3125-17.75 1.7908-0.8143 3.6657-1.5028 5.625-2.0625zm-522.19 1c-16.875 19.7-26.34 39.551-31.531 54.344 3.7608-19.529 12.276-44.038 31.531-54.344zm14.062 0.2187c0.88053 0.857 1.74 1.8058 2.625 2.8438-23.245 30.721-40.246 65.124-43.875 72.688 2.259-12.073 9.9284-40.781 34.844-71.75 2.0758-2.5802 4.2277-3.7317 6.4062-3.7813zm334.41 1.8438c-10.288 21.809-18.076 43.399-23 58.281 0.30339-5.546 0.7776-12.125 1.5312-19.406 5.9912-12.279 13.215-25.859 21.469-38.875zm-114.56 3.9375c-5.4448 11.886-10.077 23.813-13.875 34.5 2.7985-15.086 3.9825-21.485 6.0938-32.938 2.4833-0.7594 5.0693-1.29 7.7812-1.5625zm137.66 32c-0.98947 4.9183-1.8527 9.3315-2.75 13.812-5.2881 9.4912-9.206 17.184-11.406 21.656 2.3123-8.5734 6.763-22.467 14.156-35.469z" fill="url(#a)"/>
  <g transform="translate(-83.044 -153.33)">
   <path d="m106.07 694.77s9.802-179.05 93.439-147.99c-81.822-19.193-87.378 149-87.378 149l-6.0609-1.0102z" fill="#4e9a06"/>
   <path d="m110.11 695.78s9.802-179.05 93.439-147.99c-81.822-19.193-87.378 149-87.378 149l-6.0609-1.0102z" fill="#73d216"/>
  </g>
  <g transform="translate(128.74 -154.34)">
   <path d="m196.47 697.29s-7.0711-120.71 66.67-132.84c-63.135 18.183-63.135 133.34-63.135 133.34l-3.5355-0.50508z" fill="#73d216"/>
   <path d="m192.43 696.79s-7.5762-118.69 66.165-130.81c-65.155 15.152-62.629 131.32-62.629 131.32l-3.5355-0.50508z" fill="#4e9a06"/>
  </g>
  <g transform="translate(-134.23 -144.84)">
   <path d="m260.92 687.14s7.5979-103.23 72.427-85.322c-63.423-11.066-67.729 85.905-67.729 85.905l-4.698-0.58241z" fill="#4e9a06"/>
   <path d="m264.05 687.72s7.5978-103.23 72.427-85.322c-63.423-11.066-67.729 85.905-67.729 85.905l-4.698-0.5824z" fill="#73d216"/>
  </g>
  <g transform="translate(-109.08 -149.09)">
   <path d="m323.85 690.17s39.758-143.96 97.328-158.24c-50.917 30.658-91.267 159.25-91.267 159.25l-6.0609-1.0102z" fill="#4e9a06"/>
   <path d="m328.25 691.54s40.915-142.28 93.793-160.36c-49.649 28.183-87.732 161.37-87.732 161.37l-6.0609-1.0102z" fill="#73d216"/>
  </g>
  <g transform="translate(-275.18 -146.09)">
   <path d="m411.25 688.54s17.567-70.178 48.131-113.99c10.736-15.391 29.087-0.30474 42.833-5.0045-12.517 7.1052-29.747-7.2383-39.529 8.0535-29.017 45.364-45.375 111.95-45.375 111.95l-6.0609-1.0102z" fill="#73d216"/>
   <path d="m408.07 687.12s17.567-70.178 48.131-113.99c10.736-15.391 31.916 0.40237 45.662-4.2974-12.517 7.1052-32.929-8.2989-42.71 6.9929-29.017 45.364-45.021 112.31-45.021 112.31l-6.0609-1.0102z" fill="#4e9a06"/>
  </g>
  <g transform="translate(-147.92 -151.59)">
   <path d="m488.19 692.48s0.06671-41.678 30.631-85.492c10.736-15.391 31.148 25.372 42.894 28.672-12.517-14.395-29.808-40.915-39.589-25.623-29.017 45.364-27.875 83.453-27.875 83.453l-6.0609-1.0102z" fill="#4e9a06"/>
   <path d="m492.25 694.04s0.06671-41.678 30.631-85.492c10.736-15.391 30.087 25.195 41.833 28.496-12.517-14.395-28.747-40.738-38.529-25.446-29.017 45.364-27.875 83.453-27.875 83.453l-6.0609-1.0102z" fill="#73d216"/>
  </g>
  <g transform="matrix(.19804 -.04382 .03831 .26455 -62.495 288.57)">
   <path d="m308.15 1010.1c1.4286-8.5715 181.85-620.62 181.85-620.62l62.857-111.43-224.7 739.19-20-7.1428z" fill="#4e9a06"/>
   <path d="m343.06 1020.3c3.3721-8.0087 190.26-621.63 190.26-621.63l20.44-134.12-231.42 751.1 20.722 4.648z" fill="#73d216"/>
  </g>
  <g transform="matrix(.24779 -.02135 .02307 .26776 257.73 346.67)">
   <path d="m383.34 756.09c1.4286-8.5714 106.66-366.58 106.66-366.58l62.857-111.43-149.52 485.15-20-7.1429z" fill="#4e9a06"/>
   <path d="m422.61 768.62c3.3721-8.0087 110.71-369.96 110.71-369.96l20.44-134.12-154.54 497.23 23.388 6.8511z" fill="#73d216"/>
  </g>
  <g transform="matrix(.24818 -.01625 .01756 .26818 -33.108 344.2)">
   <path d="m383.34 756.09c1.4286-8.5714 106.66-366.58 106.66-366.58l62.857-111.43-149.52 485.15-20-7.1429z" fill="#4e9a06"/>
   <path d="m422.61 768.62c3.3721-8.0087 110.71-369.96 110.71-369.96l20.44-134.12-154.54 497.23 23.388 6.8511z" fill="#73d216"/>
  </g>
  <g transform="matrix(.98973 .14294 -.14294 .98973 151.77 -162.78)">
   <path d="m106.07 694.77s9.802-179.05 93.439-147.99c-81.822-19.193-87.378 149-87.378 149l-6.0609-1.0102z" fill="#4e9a06"/>
   <path d="m110.11 695.78s9.802-179.05 93.439-147.99c-81.822-19.193-87.378 149-87.378 149l-6.0609-1.0102z" fill="#73d216"/>
  </g>
  <g transform="matrix(.98973 .14294 -.14294 .98973 -36.36 -175.76)">
   <path d="m196.47 697.29s-7.0711-120.71 66.67-132.84c-63.135 18.183-63.135 133.34-63.135 133.34l-3.5355-0.50508z" fill="#73d216"/>
   <path d="m192.43 696.79s-7.5762-118.69 66.165-130.81c-65.155 15.152-62.629 131.32-62.629 131.32l-3.5355-0.50508z" fill="#4e9a06"/>
  </g>
  <g transform="matrix(.98973 .14294 -.14294 .98973 97.91 -176.19)">
   <path d="m260.92 687.14s7.5979-103.23 72.427-85.322c-63.423-11.066-67.729 85.905-67.729 85.905l-4.698-0.58241z" fill="#4e9a06"/>
   <path d="m264.05 687.72s7.5978-103.23 72.427-85.322c-63.423-11.066-67.729 85.905-67.729 85.905l-4.698-0.5824z" fill="#73d216"/>
  </g>
  <g transform="matrix(.99917 -.04082 .04082 .99917 -34.802 -148.01)">
   <path d="m106.07 694.77s9.802-179.05 93.439-147.99c-81.822-19.193-87.378 149-87.378 149l-6.0609-1.0102z" fill="#4e9a06"/>
   <path d="m110.11 695.78s9.802-179.05 93.439-147.99c-81.822-19.193-87.378 149-87.378 149l-6.0609-1.0102z" fill="#73d216"/>
  </g>
  <g transform="matrix(.99917 -.04082 .04082 .99917 -89.02 -145.59)">
   <path d="m196.47 697.29s-7.0711-120.71 66.67-132.84c-63.135 18.183-63.135 133.34-63.135 133.34l-3.5355-0.50508z" fill="#73d216"/>
   <path d="m192.43 696.79s-7.5762-118.69 66.165-130.81c-65.155 15.152-62.629 131.32-62.629 131.32l-3.5355-0.50508z" fill="#4e9a06"/>
  </g>
  <g transform="matrix(.99917 -.04082 .04082 .99917 90.543 -133.3)">
   <path d="m260.92 687.14s7.5979-103.23 72.427-85.322c-63.423-11.066-67.729 85.905-67.729 85.905l-4.698-0.58241z" fill="#4e9a06"/>
   <path d="m264.05 687.72s7.5978-103.23 72.427-85.322c-63.423-11.066-67.729 85.905-67.729 85.905l-4.698-0.5824z" fill="#73d216"/>
  </g>
  <g transform="matrix(.99413 .10822 -.10822 .99413 1.3568 -181.2)">
   <path d="m323.85 690.17s39.758-143.96 97.328-158.24c-50.917 30.658-91.267 159.25-91.267 159.25l-6.0609-1.0102z" fill="#4e9a06"/>
   <path d="m328.25 691.54s40.915-142.28 93.793-160.36c-49.649 28.183-87.732 161.37-87.732 161.37l-6.0609-1.0102z" fill="#73d216"/>
  </g>
  <g transform="matrix(.99413 .10822 -.10822 .99413 -133.5 -187.2)">
   <path d="m411.25 688.54s17.567-70.178 48.131-113.99c10.736-15.391 29.087-0.30474 42.833-5.0045-12.517 7.1052-29.747-7.2383-39.529 8.0535-29.017 45.364-45.375 111.95-45.375 111.95l-6.0609-1.0102z" fill="#73d216"/>
   <path d="m408.07 687.12s17.567-70.178 48.131-113.99c10.736-15.391 31.916 0.40237 45.662-4.2974-12.517 7.1052-32.929-8.2989-42.71 6.9929-29.017 45.364-45.021 112.31-45.021 112.31l-6.0609-1.0102z" fill="#4e9a06"/>
  </g>
  <g transform="matrix(.99413 .10822 -.10822 .99413 -292.73 -201.43)">
   <path d="m488.19 692.48s0.06671-41.678 30.631-85.492c10.736-15.391 31.148 25.372 42.894 28.672-12.517-14.395-29.808-40.915-39.589-25.623-29.017 45.364-27.875 83.453-27.875 83.453l-6.0609-1.0102z" fill="#4e9a06"/>
   <path d="m492.25 694.04s0.06671-41.678 30.631-85.492c10.736-15.391 30.087 25.195 41.833 28.496-12.517-14.395-28.747-40.738-38.529-25.446-29.017 45.364-27.875 83.453-27.875 83.453l-6.0609-1.0102z" fill="#73d216"/>
  </g>
  <g transform="matrix(.98209 .1884 -.1884 .98209 -120.06 -199.67)">
   <path d="m323.85 690.17s39.758-143.96 97.328-158.24c-50.917 30.658-91.267 159.25-91.267 159.25l-6.0609-1.0102z" fill="#4e9a06"/>
   <path d="m328.25 691.54s40.915-142.28 93.793-160.36c-49.649 28.183-87.732 161.37-87.732 161.37l-6.0609-1.0102z" fill="#73d216"/>
  </g>
  <g transform="matrix(.98209 .1884 -.1884 .98209 -47.947 -212.36)">
   <path d="m411.25 688.54s17.567-70.178 48.131-113.99c10.736-15.391 29.087-0.30474 42.833-5.0045-12.517 7.1052-29.747-7.2383-39.529 8.0535-29.017 45.364-45.375 111.95-45.375 111.95l-6.0609-1.0102z" fill="#73d216"/>
   <path d="m408.07 687.12s17.567-70.178 48.131-113.99c10.736-15.391 31.916 0.40237 45.662-4.2974-12.517 7.1052-32.929-8.2989-42.71 6.9929-29.017 45.364-45.021 112.31-45.021 112.31l-6.0609-1.0102z" fill="#4e9a06"/>
  </g>
  <g transform="matrix(.98209 .1884 -.1884 .98209 -190.87 -233.02)">
   <path d="m488.19 692.48s0.06671-41.678 30.631-85.492c10.736-15.391 31.148 25.372 42.894 28.672-12.517-14.395-29.808-40.915-39.589-25.623-29.017 45.364-27.875 83.453-27.875 83.453l-6.0609-1.0102z" fill="#4e9a06"/>
   <path d="m492.25 694.04s0.06671-41.678 30.631-85.492c10.736-15.391 30.087 25.195 41.833 28.496-12.517-14.395-28.747-40.738-38.529-25.446-29.017 45.364-27.875 83.453-27.875 83.453l-6.0609-1.0102z" fill="#73d216"/>
  </g>
  <g transform="matrix(.24847 .01085 -.01172 .2685 189.25 332.5)">
   <path d="m383.34 756.09c1.4286-8.5714 106.66-366.58 106.66-366.58l62.857-111.43-149.52 485.15-20-7.1429z" fill="#4e9a06"/>
   <path d="m422.61 768.62c3.3721-8.0087 110.71-369.96 110.71-369.96l20.44-134.12-154.54 497.23 23.388 6.8511z" fill="#73d216"/>
  </g>
  <g transform="matrix(.2161 -.02641 .02494 .26724 252.2 279.86)">
   <path d="m308.15 1010.1c1.4286-8.5715 181.85-620.62 181.85-620.62l62.857-111.43-224.7 739.19-20-7.1428z" fill="#4e9a06"/>
   <path d="m343.06 1020.3c3.3721-8.0087 190.26-621.63 190.26-621.63l20.44-134.12-231.42 751.1 20.722 4.648z" fill="#73d216"/>
  </g>
  <g transform="matrix(.24828 .01465 -.01583 .26829 107.97 331.06)">
   <path d="m383.34 756.09c1.4286-8.5714 106.66-366.58 106.66-366.58l62.857-111.43-149.52 485.15-20-7.1429z" fill="#4e9a06"/>
   <path d="m422.61 768.62c3.3721-8.0087 110.71-369.96 110.71-369.96l20.44-134.12-154.54 497.23 23.388 6.8511z" fill="#73d216"/>
  </g>
  <g transform="translate(314.74 -153.33)">
   <path d="m106.07 694.77s9.802-179.05 93.439-147.99c-81.822-19.193-87.378 149-87.378 149l-6.0609-1.0102z" fill="#4e9a06"/>
   <path d="m110.11 695.78s9.802-179.05 93.439-147.99c-81.822-19.193-87.378 149-87.378 149l-6.0609-1.0102z" fill="#73d216"/>
  </g>
  <g transform="translate(471.66 -154.34)">
   <path d="m196.47 697.29s-7.0711-120.71 66.67-132.84c-63.135 18.183-63.135 133.34-63.135 133.34l-3.5355-0.50508z" fill="#73d216"/>
   <path d="m192.43 696.79s-7.5762-118.69 66.165-130.81c-65.155 15.152-62.629 131.32-62.629 131.32l-3.5355-0.50508z" fill="#4e9a06"/>
  </g>
  <g transform="translate(242.83 -144.84)">
   <path d="m260.92 687.14s7.5979-103.23 72.427-85.322c-63.423-11.066-67.729 85.905-67.729 85.905l-4.698-0.58241z" fill="#4e9a06"/>
   <path d="m264.05 687.72s7.5978-103.23 72.427-85.322c-63.423-11.066-67.729 85.905-67.729 85.905l-4.698-0.5824z" fill="#73d216"/>
  </g>
  <g transform="translate(164.54 -149.09)">
   <path d="m323.85 690.17s39.758-143.96 97.328-158.24c-50.917 30.658-91.267 159.25-91.267 159.25l-6.0609-1.0102z" fill="#4e9a06"/>
   <path d="m328.25 691.54s40.915-142.28 93.793-160.36c-49.649 28.183-87.732 161.37-87.732 161.37l-6.0609-1.0102z" fill="#73d216"/>
  </g>
  <g transform="translate(110.34 -146.09)">
   <path d="m411.25 688.54s17.567-70.178 48.131-113.99c10.736-15.391 29.087-0.30474 42.833-5.0045-12.517 7.1052-29.747-7.2383-39.529 8.0535-29.017 45.364-45.375 111.95-45.375 111.95l-6.0609-1.0102z" fill="#73d216"/>
   <path d="m408.07 687.12s17.567-70.178 48.131-113.99c10.736-15.391 31.916 0.40237 45.662-4.2974-12.517 7.1052-32.929-8.2989-42.71 6.9929-29.017 45.364-45.021 112.31-45.021 112.31l-6.0609-1.0102z" fill="#4e9a06"/>
  </g>
  <g transform="translate(-29.757 -151.59)">
   <path d="m488.19 692.48s0.06671-41.678 30.631-85.492c10.736-15.391 31.148 25.372 42.894 28.672-12.517-14.395-29.808-40.915-39.589-25.623-29.017 45.364-27.875 83.453-27.875 83.453l-6.0609-1.0102z" fill="#4e9a06"/>
   <path d="m492.25 694.04s0.06671-41.678 30.631-85.492c10.736-15.391 30.087 25.195 41.833 28.496-12.517-14.395-28.747-40.738-38.529-25.446-29.017 45.364-27.875 83.453-27.875 83.453l-6.0609-1.0102z" fill="#73d216"/>
  </g>
  <g transform="matrix(.19804 -.04382 .03831 .26455 533.14 288.57)">
   <path d="m308.15 1010.1c1.4286-8.5715 181.85-620.62 181.85-620.62l62.857-111.43-224.7 739.19-20-7.1428z" fill="#4e9a06"/>
   <path d="m343.06 1020.3c3.3721-8.0087 190.26-621.63 190.26-621.63l20.44-134.12-231.42 751.1 20.722 4.648z" fill="#73d216"/>
  </g>
  <g transform="matrix(.24779 -.02135 .02307 .26776 561.51 346.67)">
   <path d="m383.34 756.09c1.4286-8.5714 106.66-366.58 106.66-366.58l62.857-111.43-149.52 485.15-20-7.1429z" fill="#4e9a06"/>
   <path d="m422.61 768.62c3.3721-8.0087 110.71-369.96 110.71-369.96l20.44-134.12-154.54 497.23 23.388 6.8511z" fill="#73d216"/>
  </g>
  <g transform="matrix(.24818 -.01625 .01756 .26818 416.89 344.2)">
   <path d="m383.34 756.09c1.4286-8.5714 106.66-366.58 106.66-366.58l62.857-111.43-149.52 485.15-20-7.1429z" fill="#4e9a06"/>
   <path d="m422.61 768.62c3.3721-8.0087 110.71-369.96 110.71-369.96l20.44-134.12-154.54 497.23 23.388 6.8511z" fill="#73d216"/>
  </g>
  <g transform="matrix(.98973 .14294 -.14294 .98973 535.45 -162.78)">
   <path d="m106.07 694.77s9.802-179.05 93.439-147.99c-81.822-19.193-87.378 149-87.378 149l-6.0609-1.0102z" fill="#4e9a06"/>
   <path d="m110.11 695.78s9.802-179.05 93.439-147.99c-81.822-19.193-87.378 149-87.378 149l-6.0609-1.0102z" fill="#73d216"/>
  </g>
  <g transform="matrix(.98973 .14294 -.14294 .98973 381.25 -175.76)">
   <path d="m196.47 697.29s-7.0711-120.71 66.67-132.84c-63.135 18.183-63.135 133.34-63.135 133.34l-3.5355-0.50508z" fill="#73d216"/>
   <path d="m192.43 696.79s-7.5762-118.69 66.165-130.81c-65.155 15.152-62.629 131.32-62.629 131.32l-3.5355-0.50508z" fill="#4e9a06"/>
  </g>
  <g transform="matrix(.98973 .14294 -.14294 .98973 425.21 -176.19)">
   <path d="m260.92 687.14s7.5979-103.23 72.427-85.322c-63.423-11.066-67.729 85.905-67.729 85.905l-4.698-0.58241z" fill="#4e9a06"/>
   <path d="m264.05 687.72s7.5978-103.23 72.427-85.322c-63.423-11.066-67.729 85.905-67.729 85.905l-4.698-0.5824z" fill="#73d216"/>
  </g>
  <g transform="matrix(.99917 -.04082 .04082 .99917 257.92 -148.01)">
   <path d="m106.07 694.77s9.802-179.05 93.439-147.99c-81.822-19.193-87.378 149-87.378 149l-6.0609-1.0102z" fill="#4e9a06"/>
   <path d="m110.11 695.78s9.802-179.05 93.439-147.99c-81.822-19.193-87.378 149-87.378 149l-6.0609-1.0102z" fill="#73d216"/>
  </g>
  <g transform="matrix(.99917 -.04082 .04082 .99917 424.41 -145.59)">
   <path d="m196.47 697.29s-7.0711-120.71 66.67-132.84c-63.135 18.183-63.135 133.34-63.135 133.34l-3.5355-0.50508z" fill="#73d216"/>
   <path d="m192.43 696.79s-7.5762-118.69 66.165-130.81c-65.155 15.152-62.629 131.32-62.629 131.32l-3.5355-0.50508z" fill="#4e9a06"/>
  </g>
  <g transform="matrix(.99917 -.04082 .04082 .99917 334.96 -133.3)">
   <path d="m260.92 687.14s7.5979-103.23 72.427-85.322c-63.423-11.066-67.729 85.905-67.729 85.905l-4.698-0.58241z" fill="#4e9a06"/>
   <path d="m264.05 687.72s7.5978-103.23 72.427-85.322c-63.423-11.066-67.729 85.905-67.729 85.905l-4.698-0.5824z" fill="#73d216"/>
  </g>
  <g transform="matrix(.99413 .10822 -.10822 .99413 338.79 -181.2)">
   <path d="m323.85 690.17s39.758-143.96 97.328-158.24c-50.917 30.658-91.267 159.25-91.267 159.25l-6.0609-1.0102z" fill="#4e9a06"/>
   <path d="m328.25 691.54s40.915-142.28 93.793-160.36c-49.649 28.183-87.732 161.37-87.732 161.37l-6.0609-1.0102z" fill="#73d216"/>
  </g>
  <g transform="matrix(.99413 .10822 -.10822 .99413 101.25 -187.2)">
   <path d="m411.25 688.54s17.567-70.178 48.131-113.99c10.736-15.391 29.087-0.30474 42.833-5.0045-12.517 7.1052-29.747-7.2383-39.529 8.0535-29.017 45.364-45.375 111.95-45.375 111.95l-6.0609-1.0102z" fill="#73d216"/>
   <path d="m408.07 687.12s17.567-70.178 48.131-113.99c10.736-15.391 31.916 0.40237 45.662-4.2974-12.517 7.1052-32.929-8.2989-42.71 6.9929-29.017 45.364-45.021 112.31-45.021 112.31l-6.0609-1.0102z" fill="#4e9a06"/>
  </g>
  <g transform="matrix(.99413 .10822 -.10822 .99413 252.84 -201.43)">
   <path d="m488.19 692.48s0.06671-41.678 30.631-85.492c10.736-15.391 31.148 25.372 42.894 28.672-12.517-14.395-29.808-40.915-39.589-25.623-29.017 45.364-27.875 83.453-27.875 83.453l-6.0609-1.0102z" fill="#4e9a06"/>
   <path d="m492.25 694.04s0.06671-41.678 30.631-85.492c10.736-15.391 30.087 25.195 41.833 28.496-12.517-14.395-28.747-40.738-38.529-25.446-29.017 45.364-27.875 83.453-27.875 83.453l-6.0609-1.0102z" fill="#73d216"/>
  </g>
  <g transform="matrix(.98209 .1884 -.1884 .98209 362.25 -199.67)">
   <path d="m323.85 690.17s39.758-143.96 97.328-158.24c-50.917 30.658-91.267 159.25-91.267 159.25l-6.0609-1.0102z" fill="#4e9a06"/>
   <path d="m328.25 691.54s40.915-142.28 93.793-160.36c-49.649 28.183-87.732 161.37-87.732 161.37l-6.0609-1.0102z" fill="#73d216"/>
  </g>
  <g transform="matrix(.98209 .1884 -.1884 .98209 259.93 -212.36)">
   <path d="m411.25 688.54s17.567-70.178 48.131-113.99c10.736-15.391 29.087-0.30474 42.833-5.0045-12.517 7.1052-29.747-7.2383-39.529 8.0535-29.017 45.364-45.375 111.95-45.375 111.95l-6.0609-1.0102z" fill="#73d216"/>
   <path d="m408.07 687.12s17.567-70.178 48.131-113.99c10.736-15.391 31.916 0.40237 45.662-4.2974-12.517 7.1052-32.929-8.2989-42.71 6.9929-29.017 45.364-45.021 112.31-45.021 112.31l-6.0609-1.0102z" fill="#4e9a06"/>
  </g>
  <g transform="matrix(.98209 .1884 -.1884 .98209 345.5 -233.02)">
   <path d="m488.19 692.48s0.06671-41.678 30.631-85.492c10.736-15.391 31.148 25.372 42.894 28.672-12.517-14.395-29.808-40.915-39.589-25.623-29.017 45.364-27.875 83.453-27.875 83.453l-6.0609-1.0102z" fill="#4e9a06"/>
   <path d="m492.25 694.04s0.06671-41.678 30.631-85.492c10.736-15.391 30.087 25.195 41.833 28.496-12.517-14.395-28.747-40.738-38.529-25.446-29.017 45.364-27.875 83.453-27.875 83.453l-6.0609-1.0102z" fill="#73d216"/>
  </g>
  <g transform="matrix(.24847 .01085 -.01172 .2685 310.39 332.5)">
   <path d="m383.34 756.09c1.4286-8.5714 106.66-366.58 106.66-366.58l62.857-111.43-149.52 485.15-20-7.1429z" fill="#4e9a06"/>
   <path d="m422.61 768.62c3.3721-8.0087 110.71-369.96 110.71-369.96l20.44-134.12-154.54 497.23 23.388 6.8511z" fill="#73d216"/>
  </g>
  <g transform="matrix(.2161 -.02641 .02494 .26724 351.45 279.86)">
   <path d="m308.15 1010.1c1.4286-8.5715 181.85-620.62 181.85-620.62l62.857-111.43-224.7 739.19-20-7.1428z" fill="#4e9a06"/>
   <path d="m343.06 1020.3c3.3721-8.0087 190.26-621.63 190.26-621.63l20.44-134.12-231.42 751.1 20.722 4.648z" fill="#73d216"/>
  </g>
  <g transform="matrix(.24828 .01465 -.01583 .26829 597.77 331.06)">
   <path d="m383.34 756.09c1.4286-8.5714 106.66-366.58 106.66-366.58l62.857-111.43-149.52 485.15-20-7.1429z" fill="#4e9a06"/>
   <path d="m422.61 768.62c3.3721-8.0087 110.71-369.96 110.71-369.96l20.44-134.12-154.54 497.23 23.388 6.8511z" fill="#73d216"/>
  </g>
  <path d="m23.358 410.58h691.95v131.52h-691.95z" fill="url(#b)"/>
 </g>
</svg>
